<svg xmlns="http://www.w3.org/2000/svg" xmlns:xlink="http://www.w3.org/1999/xlink" contentStyleType="text/css" data-diagram-type="ACTIVITY" height="1135px" preserveAspectRatio="none" style="width:769px;height:1135px;background:#FFFFFF;" version="1.1" viewBox="0 0 769 1135" width="769px" zoomAndPan="magnify"><title>&#1059;&#1087;&#1088;&#1072;&#1074;&#1083;&#1077;&#1085;&#1080;&#1077; &#1088;&#1077;&#1089;&#1091;&#1088;&#1089;&#1072;&#1084;&#1080; &#1080; &#1087;&#1086;&#1083;&#1100;&#1079;&#1086;&#1074;&#1072;&#1090;&#1077;&#1083;&#1103;&#1084;&#1080; &#1072;&#1076;&#1084;&#1080;&#1085;&#1080;&#1089;&#1090;&#1088;&#1072;&#1090;&#1086;&#1088;&#1086;&#1084;</title><defs/><g><g class="title" data-source-line="10"><text fill="#000000" font-family="sans-serif" font-size="14" font-weight="bold" lengthAdjust="spacing" textLength="447.3164" x="159.479" y="33.5352">&#1059;&#1087;&#1088;&#1072;&#1074;&#1083;&#1077;&#1085;&#1080;&#1077; &#1088;&#1077;&#1089;&#1091;&#1088;&#1089;&#1072;&#1084;&#1080; &#1080; &#1087;&#1086;&#1083;&#1100;&#1079;&#1086;&#1074;&#1072;&#1090;&#1077;&#1083;&#1103;&#1084;&#1080; &#1072;&#1076;&#1084;&#1080;&#1085;&#1080;&#1089;&#1090;&#1088;&#1072;&#1090;&#1086;&#1088;&#1086;&#1084;</text></g><ellipse cx="395.1372" cy="57.4883" fill="#222222" rx="10" ry="10" style="stroke:#222222;stroke-width:1;"/><rect fill="none" height="136.7539" style="stroke:#000000;stroke-width:1.5;" width="267.8945" x="261.1899" y="77.4883"/><path d="M381.6929,77.4883 L381.6929,86.9766 L371.6929,96.9766 L261.1899,96.9766" fill="none" style="stroke:#000000;stroke-width:1.5;"/><text fill="#000000" font-family="sans-serif" font-size="14" lengthAdjust="spacing" textLength="110.5029" x="264.1899" y="92.0234">&#1040;&#1076;&#1084;&#1080;&#1085;&#1080;&#1089;&#1090;&#1088;&#1072;&#1090;&#1086;&#1088;</text><rect fill="#F7F7F7" height="34.1328" rx="12.5" ry="12.5" style="stroke:#181818;stroke-width:0.5;" width="247.8945" x="271.1899" y="113.9766"/><text fill="#000000" font-family="sans-serif" font-size="12" lengthAdjust="spacing" textLength="227.8945" x="281.1899" y="135.5781">&#1042;&#1093;&#1086;&#1076; &#1074; &#1072;&#1076;&#1084;&#1080;&#1085;&#1080;&#1089;&#1090;&#1088;&#1072;&#1090;&#1080;&#1074;&#1085;&#1099;&#1081; &#1080;&#1085;&#1090;&#1077;&#1088;&#1092;&#1077;&#1081;&#1089;</text><rect fill="#F7F7F7" height="34.1328" rx="12.5" ry="12.5" style="stroke:#181818;stroke-width:0.5;" width="183.0723" x="303.6011" y="168.1094"/><text fill="#000000" font-family="sans-serif" font-size="12" lengthAdjust="spacing" textLength="163.0723" x="313.6011" y="189.7109">&#1042;&#1099;&#1073;&#1086;&#1088; &#1088;&#1072;&#1079;&#1076;&#1077;&#1083;&#1072; &#1091;&#1087;&#1088;&#1072;&#1074;&#1083;&#1077;&#1085;&#1080;&#1103;</text><polygon fill="#E0E0E0" points="113.5728,234.2422,166.0269,234.2422,178.0269,246.2422,166.0269,258.2422,113.5728,258.2422,101.5728,246.2422,113.5728,234.2422" style="stroke:#A0A0A0;stroke-width:0.5;"/><text fill="#000000" font-family="sans-serif" font-size="11" lengthAdjust="spacing" textLength="52.4541" x="113.5728" y="250.3994">"&#1056;&#1077;&#1089;&#1091;&#1088;&#1089;&#1099;"</text><rect fill="none" height="793.4102" style="stroke:#000000;stroke-width:1.5;" width="257.5996" x="11" y="268.6953"/><path d="M182.3555,268.6953 L182.3555,278.1836 L172.3555,288.1836 L11,288.1836" fill="none" style="stroke:#000000;stroke-width:1.5;"/><text fill="#000000" font-family="sans-serif" font-size="14" lengthAdjust="spacing" textLength="161.3555" x="14" y="283.2305">&#1059;&#1087;&#1088;&#1072;&#1074;&#1083;&#1077;&#1085;&#1080;&#1077; &#1088;&#1077;&#1089;&#1091;&#1088;&#1089;&#1072;&#1084;&#1080;</text><rect fill="#F7F7F7" height="48.2656" rx="12.5" ry="12.5" style="stroke:#181818;stroke-width:0.5;" width="111.1602" x="84.2197" y="305.1836"/><text fill="#000000" font-family="sans-serif" font-size="12" lengthAdjust="spacing" textLength="91.1602" x="94.2197" y="326.7852">CRUD &#1088;&#1077;&#1089;&#1091;&#1088;&#1089;&#1086;&#1074;</text><text fill="#000000" font-family="sans-serif" font-size="12" lengthAdjust="spacing" textLength="72.3867" x="94.2197" y="340.918">(&#1060;&#1058;-007.01)</text><rect fill="#F7F7F7" height="48.2656" rx="12.5" ry="12.5" style="stroke:#181818;stroke-width:0.5;" width="210.5" x="34.5498" y="373.4492"/><text fill="#000000" font-family="sans-serif" font-size="12" lengthAdjust="spacing" textLength="190.5" x="44.5498" y="395.0508">&#1056;&#1077;&#1076;&#1072;&#1082;&#1090;&#1080;&#1088;&#1086;&#1074;&#1072;&#1085;&#1080;&#1077; &#1093;&#1072;&#1088;&#1072;&#1082;&#1090;&#1077;&#1088;&#1080;&#1089;&#1090;&#1080;&#1082;</text><text fill="#000000" font-family="sans-serif" font-size="12" lengthAdjust="spacing" textLength="72.3867" x="44.5498" y="409.1836">(&#1060;&#1058;-007.02)</text><rect fill="#F7F7F7" height="48.2656" rx="12.5" ry="12.5" style="stroke:#181818;stroke-width:0.5;" width="178.9648" x="50.3174" y="448.7148"/><text fill="#000000" font-family="sans-serif" font-size="12" lengthAdjust="spacing" textLength="158.9648" x="60.3174" y="470.3164">&#1055;&#1088;&#1080;&#1074;&#1103;&#1079;&#1082;&#1072; &#1082; &#1086;&#1073;&#1086;&#1088;&#1091;&#1076;&#1086;&#1074;&#1072;&#1085;&#1080;&#1102;</text><text fill="#000000" font-family="sans-serif" font-size="12" lengthAdjust="spacing" textLength="72.3867" x="60.3174" y="484.4492">(&#1060;&#1058;-007.03)</text><rect fill="#F7F7F7" height="48.2656" rx="12.5" ry="12.5" style="stroke:#181818;stroke-width:0.5;" width="149.2637" x="65.168" y="516.9805"/><text fill="#000000" font-family="sans-serif" font-size="12" lengthAdjust="spacing" textLength="129.2637" x="75.168" y="538.582">&#1055;&#1088;&#1086;&#1089;&#1084;&#1086;&#1090;&#1088; &#1089;&#1090;&#1072;&#1090;&#1080;&#1089;&#1090;&#1080;&#1082;&#1080;</text><text fill="#000000" font-family="sans-serif" font-size="12" lengthAdjust="spacing" textLength="72.3867" x="75.168" y="552.7148">(&#1060;&#1058;-007.04)</text><rect fill="#F7F7F7" height="48.2656" rx="12.5" ry="12.5" style="stroke:#181818;stroke-width:0.5;" width="237.5996" x="21" y="585.2461"/><text fill="#000000" font-family="sans-serif" font-size="12" lengthAdjust="spacing" textLength="217.5996" x="31" y="606.8477">&#1048;&#1079;&#1084;&#1077;&#1085;&#1077;&#1085;&#1080;&#1077; &#1087;&#1088;&#1086;&#1075;&#1088;&#1072;&#1084;&#1084;&#1085;&#1099;&#1093; &#1087;&#1088;&#1086;&#1092;&#1080;&#1083;&#1077;&#1081;</text><text fill="#000000" font-family="sans-serif" font-size="12" lengthAdjust="spacing" textLength="72.3867" x="31" y="620.9805">(&#1060;&#1058;-004.03)</text><rect fill="#F7F7F7" height="48.2656" rx="12.5" ry="12.5" style="stroke:#181818;stroke-width:0.5;" width="200.6387" x="39.4805" y="660.5117"/><text fill="#000000" font-family="sans-serif" font-size="12" lengthAdjust="spacing" textLength="180.6387" x="49.4805" y="682.1133">&#1059;&#1087;&#1088;&#1072;&#1074;&#1083;&#1077;&#1085;&#1080;&#1077; &#1055;&#1054; &#1080; &#1083;&#1080;&#1094;&#1077;&#1085;&#1079;&#1080;&#1103;&#1084;&#1080;</text><text fill="#000000" font-family="sans-serif" font-size="12" lengthAdjust="spacing" textLength="144.5625" x="49.4805" y="696.2461">(&#1060;&#1058;-016.01, &#1060;&#1058;-016.02)</text><rect fill="#F7F7F7" height="48.2656" rx="12.5" ry="12.5" style="stroke:#181818;stroke-width:0.5;" width="137.7148" x="70.9424" y="728.7773"/><text fill="#000000" font-family="sans-serif" font-size="12" lengthAdjust="spacing" textLength="117.7148" x="80.9424" y="750.3789">&#1053;&#1072;&#1089;&#1090;&#1088;&#1086;&#1081;&#1082;&#1072; &#1090;&#1072;&#1088;&#1080;&#1092;&#1086;&#1074;</text><text fill="#000000" font-family="sans-serif" font-size="12" lengthAdjust="spacing" textLength="53.4141" x="80.9424" y="764.5117">(&#1060;&#1058;-012)</text><rect fill="#F7F7F7" height="48.2656" rx="12.5" ry="12.5" style="stroke:#181818;stroke-width:0.5;" width="162.4414" x="58.5791" y="797.043"/><text fill="#000000" font-family="sans-serif" font-size="12" lengthAdjust="spacing" textLength="142.4414" x="68.5791" y="818.6445">&#1048;&#1089;&#1090;&#1086;&#1088;&#1080;&#1103; &#1080;&#1089;&#1087;&#1086;&#1083;&#1100;&#1079;&#1086;&#1074;&#1072;&#1085;&#1080;&#1103;</text><text fill="#000000" font-family="sans-serif" font-size="12" lengthAdjust="spacing" textLength="53.4141" x="68.5791" y="832.7773">(&#1060;&#1058;-011)</text><rect fill="#F7F7F7" height="48.2656" rx="12.5" ry="12.5" style="stroke:#181818;stroke-width:0.5;" width="175.0215" x="52.2891" y="865.3086"/><text fill="#000000" font-family="sans-serif" font-size="12" lengthAdjust="spacing" textLength="155.0215" x="62.2891" y="886.9102">&#1054;&#1090;&#1095;&#1105;&#1090;&#1099; &#1087;&#1086; &#1079;&#1072;&#1075;&#1088;&#1091;&#1078;&#1077;&#1085;&#1085;&#1086;&#1089;&#1090;&#1080;</text><text fill="#000000" font-family="sans-serif" font-size="12" lengthAdjust="spacing" textLength="53.4141" x="62.2891" y="901.043">(&#1060;&#1058;-017)</text><rect fill="#F7F7F7" height="48.2656" rx="12.5" ry="12.5" style="stroke:#181818;stroke-width:0.5;" width="154.168" x="62.7158" y="933.5742"/><text fill="#000000" font-family="sans-serif" font-size="12" lengthAdjust="spacing" textLength="134.168" x="72.7158" y="955.1758">&#1055;&#1088;&#1072;&#1074;&#1080;&#1083;&#1072; &#1086;&#1087;&#1090;&#1080;&#1084;&#1080;&#1079;&#1072;&#1094;&#1080;&#1080;</text><text fill="#000000" font-family="sans-serif" font-size="12" lengthAdjust="spacing" textLength="53.4141" x="72.7158" y="969.3086">(&#1060;&#1058;-020)</text><rect fill="#F7F7F7" height="48.2656" rx="12.5" ry="12.5" style="stroke:#181818;stroke-width:0.5;" width="139.8125" x="69.8936" y="1001.8398"/><text fill="#000000" font-family="sans-serif" font-size="12" lengthAdjust="spacing" textLength="119.8125" x="79.8936" y="1023.4414">&#1052;&#1086;&#1076;&#1077;&#1088;&#1072;&#1094;&#1080;&#1103; &#1086;&#1090;&#1079;&#1099;&#1074;&#1086;&#1074;</text><text fill="#000000" font-family="sans-serif" font-size="12" lengthAdjust="spacing" textLength="72.3867" x="79.8936" y="1037.5742">(&#1060;&#1058;-014.03)</text><polygon fill="#E0E0E0" points="356.4985,234.2422,440.3306,234.2422,452.3306,246.2422,440.3306,258.2422,356.4985,258.2422,344.4985,246.2422,356.4985,234.2422" style="stroke:#A0A0A0;stroke-width:0.5;"/><text fill="#000000" font-family="sans-serif" font-size="11" lengthAdjust="spacing" textLength="83.832" x="356.4985" y="250.3994">"&#1055;&#1086;&#1083;&#1100;&#1079;&#1086;&#1074;&#1072;&#1090;&#1077;&#1083;&#1080;"</text><rect fill="none" height="376.8164" style="stroke:#000000;stroke-width:1.5;" width="219.6299" x="288.5996" y="268.6953"/><path d="M498.2295,268.6953 L498.2295,278.1836 L488.2295,288.1836 L288.5996,288.1836" fill="none" style="stroke:#000000;stroke-width:1.5;"/><text fill="#000000" font-family="sans-serif" font-size="14" lengthAdjust="spacing" textLength="199.6299" x="291.5996" y="283.2305">&#1059;&#1087;&#1088;&#1072;&#1074;&#1083;&#1077;&#1085;&#1080;&#1077; &#1087;&#1086;&#1083;&#1100;&#1079;&#1086;&#1074;&#1072;&#1090;&#1077;&#1083;&#1103;&#1084;&#1080;</text><rect fill="#F7F7F7" height="48.2656" rx="12.5" ry="12.5" style="stroke:#181818;stroke-width:0.5;" width="117.2656" x="339.7817" y="305.1836"/><text fill="#000000" font-family="sans-serif" font-size="12" lengthAdjust="spacing" textLength="97.2656" x="349.7817" y="326.7852">CRUD &#1072;&#1082;&#1082;&#1072;&#1091;&#1085;&#1090;&#1086;&#1074;</text><text fill="#000000" font-family="sans-serif" font-size="12" lengthAdjust="spacing" textLength="72.3867" x="349.7817" y="340.918">(&#1060;&#1058;-008.01)</text><rect fill="#F7F7F7" height="48.2656" rx="12.5" ry="12.5" style="stroke:#181818;stroke-width:0.5;" width="167.3281" x="314.7505" y="373.4492"/><text fill="#000000" font-family="sans-serif" font-size="12" lengthAdjust="spacing" textLength="147.3281" x="324.7505" y="395.0508">&#1056;&#1077;&#1076;&#1072;&#1082;&#1090;&#1080;&#1088;&#1086;&#1074;&#1072;&#1085;&#1080;&#1077; &#1076;&#1072;&#1085;&#1085;&#1099;&#1093;</text><text fill="#000000" font-family="sans-serif" font-size="12" lengthAdjust="spacing" textLength="72.3867" x="324.7505" y="409.1836">(&#1060;&#1058;-008.02)</text><rect fill="#F7F7F7" height="48.2656" rx="12.5" ry="12.5" style="stroke:#181818;stroke-width:0.5;" width="141.0723" x="327.8784" y="448.7148"/><text fill="#000000" font-family="sans-serif" font-size="12" lengthAdjust="spacing" textLength="121.0723" x="337.8784" y="470.3164">&#1048;&#1089;&#1090;&#1086;&#1088;&#1080;&#1103; &#1072;&#1082;&#1090;&#1080;&#1074;&#1085;&#1086;&#1089;&#1090;&#1080;</text><text fill="#000000" font-family="sans-serif" font-size="12" lengthAdjust="spacing" textLength="72.3867" x="337.8784" y="484.4492">(&#1060;&#1058;-008.03)</text><rect fill="#F7F7F7" height="48.2656" rx="12.5" ry="12.5" style="stroke:#181818;stroke-width:0.5;" width="158.7559" x="319.0366" y="516.9805"/><text fill="#000000" font-family="sans-serif" font-size="12" lengthAdjust="spacing" textLength="138.7559" x="329.0366" y="538.582">&#1057;&#1073;&#1088;&#1086;&#1089; &#1091;&#1095;&#1105;&#1090;&#1085;&#1099;&#1093; &#1076;&#1072;&#1085;&#1085;&#1099;&#1093;</text><text fill="#000000" font-family="sans-serif" font-size="12" lengthAdjust="spacing" textLength="72.3867" x="329.0366" y="552.7148">(&#1060;&#1058;-008.04)</text><rect fill="#F7F7F7" height="48.2656" rx="12.5" ry="12.5" style="stroke:#181818;stroke-width:0.5;" width="173.5273" x="311.6509" y="585.2461"/><text fill="#000000" font-family="sans-serif" font-size="12" lengthAdjust="spacing" textLength="153.5273" x="321.6509" y="606.8477">&#1056;&#1072;&#1079;&#1073;&#1083;&#1086;&#1082;&#1080;&#1088;&#1086;&#1074;&#1082;&#1072; &#1072;&#1082;&#1082;&#1072;&#1091;&#1085;&#1090;&#1086;&#1074;</text><text fill="#000000" font-family="sans-serif" font-size="12" lengthAdjust="spacing" textLength="72.3867" x="321.6509" y="620.9805">(&#1060;&#1058;-015.03)</text><polygon fill="#E0E0E0" points="568.3352,234.2422,689.1687,234.2422,701.1687,246.2422,689.1687,258.2422,568.3352,258.2422,556.3352,246.2422,568.3352,234.2422" style="stroke:#A0A0A0;stroke-width:0.5;"/><text fill="#000000" font-family="sans-serif" font-size="11" lengthAdjust="spacing" textLength="120.8335" x="568.3352" y="250.3994">"&#1057;&#1080;&#1089;&#1090;&#1077;&#1084;&#1085;&#1099;&#1077; &#1092;&#1091;&#1085;&#1082;&#1094;&#1080;&#1080;"</text><rect fill="none" height="165.0195" style="stroke:#000000;stroke-width:1.5;" width="201.0449" x="528.2295" y="268.6953"/><path d="M681.5586,268.6953 L681.5586,278.1836 L671.5586,288.1836 L528.2295,288.1836" fill="none" style="stroke:#000000;stroke-width:1.5;"/><text fill="#000000" font-family="sans-serif" font-size="14" lengthAdjust="spacing" textLength="143.3291" x="531.2295" y="283.2305">&#1057;&#1080;&#1089;&#1090;&#1077;&#1084;&#1085;&#1099;&#1077; &#1092;&#1091;&#1085;&#1082;&#1094;&#1080;&#1080;</text><rect fill="#F7F7F7" height="48.2656" rx="12.5" ry="12.5" style="stroke:#181818;stroke-width:0.5;" width="181.0449" x="538.2295" y="305.1836"/><text fill="#000000" font-family="sans-serif" font-size="12" lengthAdjust="spacing" textLength="161.0449" x="548.2295" y="326.7852">&#1046;&#1091;&#1088;&#1085;&#1072;&#1083; &#1076;&#1077;&#1081;&#1089;&#1090;&#1074;&#1080;&#1081;/&#1089;&#1086;&#1073;&#1099;&#1090;&#1080;&#1081;</text><text fill="#000000" font-family="sans-serif" font-size="12" lengthAdjust="spacing" textLength="53.4141" x="548.2295" y="340.918">(&#1060;&#1058;-009)</text><rect fill="#F7F7F7" height="48.2656" rx="12.5" ry="12.5" style="stroke:#181818;stroke-width:0.5;" width="135.1895" x="561.1572" y="373.4492"/><text fill="#000000" font-family="sans-serif" font-size="12" lengthAdjust="spacing" textLength="115.1895" x="571.1572" y="395.0508">&#1052;&#1072;&#1089;&#1089;&#1086;&#1074;&#1072;&#1103; &#1088;&#1072;&#1089;&#1089;&#1099;&#1083;&#1082;&#1072;</text><text fill="#000000" font-family="sans-serif" font-size="12" lengthAdjust="spacing" textLength="53.4141" x="571.1572" y="409.1836">(&#1060;&#1058;-013)</text><ellipse cx="395.1372" cy="1113.1055" fill="none" rx="11" ry="11" style="stroke:#222222;stroke-width:1;"/><ellipse cx="395.1372" cy="1113.1055" fill="#222222" rx="6" ry="6" style="stroke:#222222;stroke-width:1;"/><line style="stroke:#181818;stroke-width:1;" x1="395.1372" x2="395.1372" y1="148.1094" y2="168.1094"/><polygon fill="#181818" points="391.1372,158.1094,395.1372,168.1094,399.1372,158.1094,395.1372,162.1094" style="stroke:#181818;stroke-width:1;"/><line style="stroke:#181818;stroke-width:1;" x1="395.1372" x2="395.1372" y1="67.4883" y2="113.9766"/><polygon fill="#181818" points="391.1372,103.9766,395.1372,113.9766,399.1372,103.9766,395.1372,107.9766" style="stroke:#181818;stroke-width:1;"/><line style="stroke:#181818;stroke-width:1;" x1="139.7998" x2="139.7998" y1="353.4492" y2="373.4492"/><polygon fill="#181818" points="135.7998,363.4492,139.7998,373.4492,143.7998,363.4492,139.7998,367.4492" style="stroke:#181818;stroke-width:1;"/><line style="stroke:#181818;stroke-width:1;" x1="139.7998" x2="139.7998" y1="421.7148" y2="448.7148"/><polygon fill="#181818" points="135.7998,438.7148,139.7998,448.7148,143.7998,438.7148,139.7998,442.7148" style="stroke:#181818;stroke-width:1;"/><line style="stroke:#181818;stroke-width:1;" x1="139.7998" x2="139.7998" y1="496.9805" y2="516.9805"/><polygon fill="#181818" points="135.7998,506.9805,139.7998,516.9805,143.7998,506.9805,139.7998,510.9805" style="stroke:#181818;stroke-width:1;"/><line style="stroke:#181818;stroke-width:1;" x1="139.7998" x2="139.7998" y1="565.2461" y2="585.2461"/><polygon fill="#181818" points="135.7998,575.2461,139.7998,585.2461,143.7998,575.2461,139.7998,579.2461" style="stroke:#181818;stroke-width:1;"/><line style="stroke:#181818;stroke-width:1;" x1="139.7998" x2="139.7998" y1="633.5117" y2="660.5117"/><polygon fill="#181818" points="135.7998,650.5117,139.7998,660.5117,143.7998,650.5117,139.7998,654.5117" style="stroke:#181818;stroke-width:1;"/><line style="stroke:#181818;stroke-width:1;" x1="139.7998" x2="139.7998" y1="708.7773" y2="728.7773"/><polygon fill="#181818" points="135.7998,718.7773,139.7998,728.7773,143.7998,718.7773,139.7998,722.7773" style="stroke:#181818;stroke-width:1;"/><line style="stroke:#181818;stroke-width:1;" x1="139.7998" x2="139.7998" y1="777.043" y2="797.043"/><polygon fill="#181818" points="135.7998,787.043,139.7998,797.043,143.7998,787.043,139.7998,791.043" style="stroke:#181818;stroke-width:1;"/><line style="stroke:#181818;stroke-width:1;" x1="139.7998" x2="139.7998" y1="845.3086" y2="865.3086"/><polygon fill="#181818" points="135.7998,855.3086,139.7998,865.3086,143.7998,855.3086,139.7998,859.3086" style="stroke:#181818;stroke-width:1;"/><line style="stroke:#181818;stroke-width:1;" x1="139.7998" x2="139.7998" y1="913.5742" y2="933.5742"/><polygon fill="#181818" points="135.7998,923.5742,139.7998,933.5742,143.7998,923.5742,139.7998,927.5742" style="stroke:#181818;stroke-width:1;"/><line style="stroke:#181818;stroke-width:1;" x1="139.7998" x2="139.7998" y1="981.8398" y2="1001.8398"/><polygon fill="#181818" points="135.7998,991.8398,139.7998,1001.8398,143.7998,991.8398,139.7998,995.8398" style="stroke:#181818;stroke-width:1;"/><line style="stroke:#181818;stroke-width:1;" x1="398.4146" x2="398.4146" y1="353.4492" y2="373.4492"/><polygon fill="#181818" points="394.4146,363.4492,398.4146,373.4492,402.4146,363.4492,398.4146,367.4492" style="stroke:#181818;stroke-width:1;"/><line style="stroke:#181818;stroke-width:1;" x1="398.4146" x2="398.4146" y1="421.7148" y2="448.7148"/><polygon fill="#181818" points="394.4146,438.7148,398.4146,448.7148,402.4146,438.7148,398.4146,442.7148" style="stroke:#181818;stroke-width:1;"/><line style="stroke:#181818;stroke-width:1;" x1="398.4146" x2="398.4146" y1="496.9805" y2="516.9805"/><polygon fill="#181818" points="394.4146,506.9805,398.4146,516.9805,402.4146,506.9805,398.4146,510.9805" style="stroke:#181818;stroke-width:1;"/><line style="stroke:#181818;stroke-width:1;" x1="398.4146" x2="398.4146" y1="565.2461" y2="585.2461"/><polygon fill="#181818" points="394.4146,575.2461,398.4146,585.2461,402.4146,575.2461,398.4146,579.2461" style="stroke:#181818;stroke-width:1;"/><line style="stroke:#181818;stroke-width:1;" x1="628.752" x2="628.752" y1="353.4492" y2="373.4492"/><polygon fill="#181818" points="624.752,363.4492,628.752,373.4492,632.752,363.4492,628.752,367.4492" style="stroke:#181818;stroke-width:1;"/><line style="stroke:#181818;stroke-width:1;" x1="139.7998" x2="139.7998" y1="258.2422" y2="305.1836"/><polygon fill="#181818" points="135.7998,295.1836,139.7998,305.1836,143.7998,295.1836,139.7998,299.1836" style="stroke:#181818;stroke-width:1;"/><line style="stroke:#181818;stroke-width:1;" x1="139.7998" x2="139.7998" y1="1050.1055" y2="1082.1055"/><polygon fill="#181818" points="135.7998,1072.1055,139.7998,1082.1055,143.7998,1072.1055,139.7998,1076.1055" style="stroke:#181818;stroke-width:1;"/><line style="stroke:#181818;stroke-width:1;" x1="398.4146" x2="398.4146" y1="258.2422" y2="305.1836"/><polygon fill="#181818" points="394.4146,295.1836,398.4146,305.1836,402.4146,295.1836,398.4146,299.1836" style="stroke:#181818;stroke-width:1;"/><line style="stroke:#181818;stroke-width:1;" x1="398.4146" x2="398.4146" y1="633.5117" y2="1082.1055"/><polygon fill="#181818" points="394.4146,1072.1055,398.4146,1082.1055,402.4146,1072.1055,398.4146,1076.1055" style="stroke:#181818;stroke-width:1;"/><line style="stroke:#181818;stroke-width:1;" x1="628.752" x2="628.752" y1="258.2422" y2="305.1836"/><polygon fill="#181818" points="624.752,295.1836,628.752,305.1836,632.752,295.1836,628.752,299.1836" style="stroke:#181818;stroke-width:1;"/><line style="stroke:#181818;stroke-width:1;" x1="628.752" x2="628.752" y1="421.7148" y2="1082.1055"/><polygon fill="#181818" points="624.752,1072.1055,628.752,1082.1055,632.752,1072.1055,628.752,1076.1055" style="stroke:#181818;stroke-width:1;"/><line style="stroke:#181818;stroke-width:1;" x1="178.0269" x2="344.4985" y1="246.2422" y2="246.2422"/><polygon fill="#181818" points="334.4985,242.2422,344.4985,246.2422,334.4985,250.2422,338.4985,246.2422" style="stroke:#181818;stroke-width:1;"/><line style="stroke:#181818;stroke-width:1;" x1="452.3306" x2="556.3352" y1="246.2422" y2="246.2422"/><polygon fill="#181818" points="546.3352,242.2422,556.3352,246.2422,546.3352,250.2422,550.3352,246.2422" style="stroke:#181818;stroke-width:1;"/><line style="stroke:#181818;stroke-width:1;" x1="395.1372" x2="395.1372" y1="202.2422" y2="219.2422"/><line style="stroke:#181818;stroke-width:1;" x1="395.1372" x2="139.7998" y1="219.2422" y2="219.2422"/><line style="stroke:#181818;stroke-width:1;" x1="139.7998" x2="139.7998" y1="219.2422" y2="234.2422"/><polygon fill="#181818" points="135.7998,224.2422,139.7998,234.2422,143.7998,224.2422,139.7998,228.2422" style="stroke:#181818;stroke-width:1;"/><line style="stroke:#181818;stroke-width:1;" x1="701.1687" x2="743.2744" y1="246.2422" y2="246.2422"/><line style="stroke:#181818;stroke-width:1;" x1="743.2744" x2="743.2744" y1="246.2422" y2="1082.1055"/><polygon fill="#181818" points="739.2744,1072.1055,743.2744,1082.1055,747.2744,1072.1055,743.2744,1076.1055" style="stroke:#181818;stroke-width:1;"/><line style="stroke:#181818;stroke-width:1;" x1="139.7998" x2="743.2744" y1="1082.1055" y2="1082.1055"/><line style="stroke:#181818;stroke-width:1;" x1="395.1372" x2="395.1372" y1="1082.1055" y2="1102.1055"/><polygon fill="#181818" points="391.1372,1092.1055,395.1372,1102.1055,399.1372,1092.1055,395.1372,1096.1055" style="stroke:#181818;stroke-width:1;"/><!--SRC=[bLNRJXDH57sVhpYfBv1uQIkAofE2Ve34-EBBX1QOqCwGTfGGGqAvo4EDLHyC3mgYVa1RgRqFlx3F7xdsdYdJqmiYGtev- -pRMdlj5ZSSTzCks7bLNBSptfRZhgbLErVCMiLBYxtYUuLbVpkNLVPMjkZbHupE6yVVLcyjXRydzih6Mi5xxMOMlPnNK3UUpVCZjYN7pdjkPkpAqoG_nXMlaCaM8lFZ93zHz0c7orjEFcUxsPTEnbzNwNJIsh5ynqUrz9Ckz2vLgKvTQb2VMjHGE6ZeajxNkxe4KuzQYlylAA2kVazDlDUfglVWqDMLq5wbS_x04U2wnp5n8S1xG3tBAlfsmRSi08AyZkUg17sSvf68W7f4d_KXtCyLrQSbQA6IlYvJMx69IqBH1oYihKiBbr7ALEF0IZfj8X0AfwhI-wFDwye2eB6SLJMJeEyn2hgSc9LemmrS3xf1DrBBulCNI-OTGFdAdQ5VzEDMCZb_EvcQNOYlSmcejaeTRbMm1F23L8T0O3SoekqG5vWwHi2q4V2Kxr4Th3Mf0mYeen1Kq04Qvt42_S68SdSiIe3YUtZTOrmviT0nA85QXlkSuNwCv3s1R02R81dGR-cdXmUSwiFe67os1E9s77DkjAH9PD0fdSZaTb7OEpbkCiTCosMer7s0VbF5Nqp0lg6lSDm2QWjaqYgZVM2GbpBzZWM9G2vM50Cpgfzmtc9_a_aJv3pId_1Q5kKfk5KP8D3qHrhfCmMCTXnYVemb1gGbmuwa5y8DYmYn04Xho3UTD7o_ikvagkGYjm2ggGafrSssXvZOiR9OYw5uJYSj2wZXUZAwQjUC2uermDG06bu1XgGU_8-anD0FXyy8SIMtKIpUH6EKiBCvg6TK2zM3zHCoF1ZsQSddHkhd5LO3M07BBEf0j3mTXjIzoIoTHOfjX9BZhNB0xkX8ncC2NVzq6QQ7ll2QWx5ANILxjotEF9JjExB-QkYNqHiIzyEHKMG5bg91gCWIvmFaxdAxSPD37RePPvL_TRpDlm00]--></g></svg>