<svg xmlns="http://www.w3.org/2000/svg" xmlns:xlink="http://www.w3.org/1999/xlink" contentStyleType="text/css" data-diagram-type="ACTIVITY" height="1479px" preserveAspectRatio="none" style="width:1219px;height:1479px;background:#FFFFFF;" version="1.1" viewBox="0 0 1219 1479" width="1219px" zoomAndPan="magnify"><title>&#1055;&#1088;&#1086;&#1094;&#1077;&#1089;&#1089; &#1073;&#1088;&#1086;&#1085;&#1080;&#1088;&#1086;&#1074;&#1072;&#1085;&#1080;&#1103; &#1080; &#1080;&#1089;&#1087;&#1086;&#1083;&#1100;&#1079;&#1086;&#1074;&#1072;&#1085;&#1080;&#1103; &#1088;&#1077;&#1089;&#1091;&#1088;&#1089;&#1072;</title><defs/><g><g class="title" data-source-line="4"><text fill="#000000" font-family="sans-serif" font-size="14" font-weight="bold" lengthAdjust="spacing" textLength="366.4268" x="424.9846" y="33.5352">&#1055;&#1088;&#1086;&#1094;&#1077;&#1089;&#1089; &#1073;&#1088;&#1086;&#1085;&#1080;&#1088;&#1086;&#1074;&#1072;&#1085;&#1080;&#1103; &#1080; &#1080;&#1089;&#1087;&#1086;&#1083;&#1100;&#1079;&#1086;&#1074;&#1072;&#1085;&#1080;&#1103; &#1088;&#1077;&#1089;&#1091;&#1088;&#1089;&#1072;</text></g><ellipse cx="609.698" cy="57.4883" fill="#222222" rx="10" ry="10" style="stroke:#222222;stroke-width:1;"/><rect fill="none" height="510.7969" style="stroke:#000000;stroke-width:1.5;" width="592.2593" x="428.6707" y="77.4883"/><path d="M533.1365,77.4883 L533.1365,86.9766 L523.1365,96.9766 L428.6707,96.9766" fill="none" style="stroke:#000000;stroke-width:1.5;"/><text fill="#000000" font-family="sans-serif" font-size="14" lengthAdjust="spacing" textLength="94.4658" x="431.6707" y="92.0234">&#1055;&#1086;&#1083;&#1100;&#1079;&#1086;&#1074;&#1072;&#1090;&#1077;&#1083;&#1100;</text><rect fill="#F1F1F1" height="34.1328" rx="12.5" ry="12.5" style="stroke:#181818;stroke-width:0.5;" width="260.7266" x="479.3347" y="113.9766"/><text fill="#000000" font-family="sans-serif" font-size="12" lengthAdjust="spacing" textLength="240.7266" x="489.3347" y="135.5781">&#1054;&#1090;&#1082;&#1088;&#1099;&#1090;&#1080;&#1077; &#1087;&#1088;&#1080;&#1083;&#1086;&#1078;&#1077;&#1085;&#1080;&#1103;/&#1074;&#1077;&#1073;-&#1080;&#1085;&#1090;&#1077;&#1088;&#1092;&#1077;&#1081;&#1089;&#1072;</text><rect fill="#F1F1F1" height="34.1328" rx="12.5" ry="12.5" style="stroke:#181818;stroke-width:0.5;" width="312.3066" x="453.5447" y="168.1094"/><text fill="#000000" font-family="sans-serif" font-size="12" lengthAdjust="spacing" textLength="292.3066" x="463.5447" y="189.7109">&#1055;&#1088;&#1086;&#1089;&#1084;&#1086;&#1090;&#1088; &#1076;&#1086;&#1089;&#1090;&#1091;&#1087;&#1085;&#1086;&#1089;&#1090;&#1080; &#1088;&#1077;&#1089;&#1091;&#1088;&#1089;&#1086;&#1074; (&#1060;&#1058;-001.01.01)</text><rect fill="#F1F1F1" height="34.1328" rx="12.5" ry="12.5" style="stroke:#181818;stroke-width:0.5;" width="203.7383" x="507.8289" y="266.2422"/><text fill="#000000" font-family="sans-serif" font-size="12" lengthAdjust="spacing" textLength="183.7383" x="517.8289" y="287.8438">&#1042;&#1099;&#1073;&#1086;&#1088; &#1088;&#1077;&#1089;&#1091;&#1088;&#1089;&#1072; (&#1060;&#1058;-001.02.01)</text><rect fill="#F1F1F1" height="34.1328" rx="12.5" ry="12.5" style="stroke:#181818;stroke-width:0.5;" width="342.0547" x="438.6707" y="320.375"/><text fill="#000000" font-family="sans-serif" font-size="12" lengthAdjust="spacing" textLength="322.0547" x="448.6707" y="341.9766">&#1042;&#1099;&#1073;&#1086;&#1088; &#1076;&#1072;&#1090;&#1099; &#1080; &#1074;&#1088;&#1077;&#1084;&#1077;&#1085;&#1080; &#1073;&#1088;&#1086;&#1085;&#1080;&#1088;&#1086;&#1074;&#1072;&#1085;&#1080;&#1103; (&#1060;&#1058;-001.02.02)</text><rect fill="#F1F1F1" height="34.1328" rx="12.5" ry="12.5" style="stroke:#181818;stroke-width:0.5;" width="252.5352" x="483.4304" y="374.5078"/><text fill="#000000" font-family="sans-serif" font-size="12" lengthAdjust="spacing" textLength="232.5352" x="493.4304" y="396.1094">&#1055;&#1088;&#1086;&#1074;&#1077;&#1088;&#1082;&#1072; &#1076;&#1086;&#1089;&#1090;&#1091;&#1087;&#1085;&#1086;&#1089;&#1090;&#1080; (&#1060;&#1058;-001.01.03)</text><polygon fill="#F1F1F1" points="609.698,222.2422,621.698,234.2422,609.698,246.2422,597.698,234.2422,609.698,222.2422" style="stroke:#181818;stroke-width:0.5;"/><polygon fill="#F1F1F1" points="508.085,428.6406,711.311,428.6406,723.311,440.6406,711.311,452.6406,508.085,452.6406,496.085,440.6406,508.085,428.6406" style="stroke:#181818;stroke-width:0.5;"/><text fill="#000000" font-family="sans-serif" font-size="11" lengthAdjust="spacing" textLength="68.2075" x="613.698" y="463.2754">&#1055;&#1088;&#1086;&#1076;&#1086;&#1083;&#1078;&#1080;&#1090;&#1100;</text><text fill="#000000" font-family="sans-serif" font-size="11" lengthAdjust="spacing" textLength="203.2261" x="508.085" y="444.7979">&#1056;&#1077;&#1089;&#1091;&#1088;&#1089; &#1085;&#1077;&#1076;&#1086;&#1089;&#1090;&#1091;&#1087;&#1077;&#1085; &#1080;&#1083;&#1080; &#1074;&#1088;&#1077;&#1084;&#1103; &#1079;&#1072;&#1085;&#1103;&#1090;&#1086;</text><text fill="#000000" font-family="sans-serif" font-size="11" lengthAdjust="spacing" textLength="95.0093" x="723.311" y="438.3203">&#1055;&#1086;&#1074;&#1090;&#1086;&#1088;&#1080;&#1090;&#1100; &#1074;&#1099;&#1073;&#1086;&#1088;</text><rect fill="#F1F1F1" height="34.1328" rx="12.5" ry="12.5" style="stroke:#181818;stroke-width:0.5;" width="205.9883" x="506.7039" y="484.7754"/><text fill="#000000" font-family="sans-serif" font-size="12" lengthAdjust="spacing" textLength="185.9883" x="516.7039" y="506.377">&#1055;&#1086;&#1076;&#1090;&#1074;&#1077;&#1088;&#1078;&#1076;&#1077;&#1085;&#1080;&#1077; &#1073;&#1088;&#1086;&#1085;&#1080;&#1088;&#1086;&#1074;&#1072;&#1085;&#1080;&#1103;</text><path d="M744.3582,535.6641 L744.3582,551.9746 L724.3582,555.9746 L744.3582,559.9746 L744.3582,576.2852 A0,0 0 0 0 744.3582,576.2852 L1010.9299,576.2852 A0,0 0 0 0 1010.9299,576.2852 L1010.9299,545.6641 L1000.9299,535.6641 L744.3582,535.6641 A0,0 0 0 0 744.3582,535.6641" fill="#FEFFDD" style="stroke:#181818;stroke-width:0.5;"/><path d="M1000.9299,535.6641 L1000.9299,545.6641 L1010.9299,545.6641 L1000.9299,535.6641" fill="#FEFFDD" style="stroke:#181818;stroke-width:0.5;"/><text fill="#000000" font-family="sans-serif" font-size="13" lengthAdjust="spacing" textLength="244.4165" x="750.3582" y="553.2324">&#1057;&#1080;&#1089;&#1090;&#1077;&#1084;&#1072; &#1088;&#1077;&#1075;&#1080;&#1089;&#1090;&#1088;&#1080;&#1088;&#1091;&#1077;&#1090; &#1073;&#1088;&#1086;&#1085;&#1080;&#1088;&#1086;&#1074;&#1072;&#1085;&#1080;&#1077;</text><text fill="#000000" font-family="sans-serif" font-size="13" lengthAdjust="spacing" textLength="245.5718" x="750.3582" y="568.543">&#1080; &#1092;&#1080;&#1085;&#1072;&#1085;&#1089;&#1086;&#1074;&#1091;&#1102; &#1086;&#1087;&#1077;&#1088;&#1072;&#1094;&#1080;&#1102; (&#1060;&#1058;-010.03)</text><rect fill="#F1F1F1" height="34.1328" rx="12.5" ry="12.5" style="stroke:#181818;stroke-width:0.5;" width="229.3203" x="495.0378" y="538.9082"/><text fill="#000000" font-family="sans-serif" font-size="12" lengthAdjust="spacing" textLength="209.3203" x="505.0378" y="560.5098">&#1054;&#1087;&#1083;&#1072;&#1090;&#1072; &#1073;&#1088;&#1086;&#1085;&#1080;&#1088;&#1086;&#1074;&#1072;&#1085;&#1080;&#1103; (&#1060;&#1058;-010.02)</text><rect fill="none" height="188.7539" style="stroke:#000000;stroke-width:1.5;" width="788.6973" x="215.3494" y="621.2402"/><path d="M388.6667,621.2402 L388.6667,630.7285 L378.6667,640.7285 L215.3494,640.7285" fill="none" style="stroke:#000000;stroke-width:1.5;"/><text fill="#000000" font-family="sans-serif" font-size="14" lengthAdjust="spacing" textLength="163.3174" x="218.3494" y="635.7754">&#1057;&#1080;&#1089;&#1090;&#1077;&#1084;&#1072; &#1073;&#1088;&#1086;&#1085;&#1080;&#1088;&#1086;&#1074;&#1072;&#1085;&#1080;&#1103;</text><rect fill="#555555" height="6" rx="2.5" ry="2.5" style="stroke:#555555;stroke-width:1;" width="768.6973" x="225.3494" y="657.7285"/><rect fill="#F1F1F1" height="34.1328" rx="12.5" ry="12.5" style="stroke:#181818;stroke-width:0.5;" width="152.8438" x="359.4138" y="683.7285"/><text fill="#000000" font-family="sans-serif" font-size="12" lengthAdjust="spacing" textLength="132.8438" x="369.4138" y="705.3301">&#1053;&#1072;&#1095;&#1072;&#1083;&#1086; &#1073;&#1088;&#1086;&#1085;&#1080;&#1088;&#1086;&#1074;&#1072;&#1085;&#1080;&#1103;</text><rect fill="#F1F1F1" height="34.1328" rx="12.5" ry="12.5" style="stroke:#181818;stroke-width:0.5;" width="392.9727" x="239.3494" y="737.8613"/><text fill="#000000" font-family="sans-serif" font-size="12" lengthAdjust="spacing" textLength="372.9727" x="249.3494" y="759.4629">&#1054;&#1090;&#1087;&#1088;&#1072;&#1074;&#1082;&#1072; &#1091;&#1074;&#1077;&#1076;&#1086;&#1084;&#1083;&#1077;&#1085;&#1080;&#1103; &#1079;&#1072; 15 &#1084;&#1080;&#1085;&#1091;&#1090; &#1076;&#1086; &#1085;&#1072;&#1095;&#1072;&#1083;&#1072; (&#1060;&#1058;-005.01.01)</text><rect fill="#F1F1F1" height="34.1328" rx="12.5" ry="12.5" style="stroke:#181818;stroke-width:0.5;" width="290.5918" x="674.8884" y="683.7285"/><text fill="#000000" font-family="sans-serif" font-size="12" lengthAdjust="spacing" textLength="270.5918" x="684.8884" y="705.3301">&#1040;&#1082;&#1090;&#1080;&#1074;&#1072;&#1094;&#1080;&#1103; &#1092;&#1080;&#1079;&#1080;&#1095;&#1077;&#1089;&#1082;&#1086;&#1075;&#1086; &#1088;&#1077;&#1089;&#1091;&#1088;&#1089;&#1072; (&#1060;&#1058;-002.01)</text><rect fill="#F1F1F1" height="34.1328" rx="12.5" ry="12.5" style="stroke:#181818;stroke-width:0.5;" width="319.7246" x="660.322" y="737.8613"/><text fill="#000000" font-family="sans-serif" font-size="12" lengthAdjust="spacing" textLength="299.7246" x="670.322" y="759.4629">&#1055;&#1088;&#1080;&#1084;&#1077;&#1085;&#1077;&#1085;&#1080;&#1077; &#1087;&#1088;&#1086;&#1075;&#1088;&#1072;&#1084;&#1084;&#1085;&#1086;&#1075;&#1086; &#1087;&#1088;&#1086;&#1092;&#1080;&#1083;&#1103; (&#1060;&#1058;-004.01)</text><rect fill="#555555" height="6" rx="2.5" ry="2.5" style="stroke:#555555;stroke-width:1;" width="768.6973" x="225.3494" y="791.9941"/><rect fill="none" height="197.1309" style="stroke:#000000;stroke-width:1.5;" width="734.7246" x="419.9402" y="819.9941"/><path d="M524.406,819.9941 L524.406,829.4824 L514.406,839.4824 L419.9402,839.4824" fill="none" style="stroke:#000000;stroke-width:1.5;"/><text fill="#000000" font-family="sans-serif" font-size="14" lengthAdjust="spacing" textLength="94.4658" x="422.9402" y="834.5293">&#1055;&#1086;&#1083;&#1100;&#1079;&#1086;&#1074;&#1072;&#1090;&#1077;&#1083;&#1100;</text><path d="M809.4558,856.2383 L809.4558,872.5488 L789.4558,876.5488 L809.4558,880.5488 L809.4558,896.8594 A0,0 0 0 0 809.4558,896.8594 L1144.6648,896.8594 A0,0 0 0 0 1144.6648,896.8594 L1144.6648,866.2383 L1134.6648,856.2383 L809.4558,856.2383 A0,0 0 0 0 809.4558,856.2383" fill="#FEFFDD" style="stroke:#181818;stroke-width:0.5;"/><path d="M1134.6648,856.2383 L1134.6648,866.2383 L1144.6648,866.2383 L1134.6648,856.2383" fill="#FEFFDD" style="stroke:#181818;stroke-width:0.5;"/><text fill="#000000" font-family="sans-serif" font-size="13" lengthAdjust="spacing" textLength="314.209" x="815.4558" y="873.8066">&#1057;&#1080;&#1089;&#1090;&#1077;&#1084;&#1072; &#1074;&#1072;&#1083;&#1080;&#1076;&#1080;&#1088;&#1091;&#1077;&#1090; &#1073;&#1088;&#1086;&#1085;&#1080;&#1088;&#1086;&#1074;&#1072;&#1085;&#1080;&#1077; (&#1060;&#1058;-003.03)</text><text fill="#000000" font-family="sans-serif" font-size="13" lengthAdjust="spacing" textLength="268.436" x="815.4558" y="889.1172">&#1080; &#1083;&#1086;&#1075;&#1080;&#1088;&#1091;&#1077;&#1090; &#1087;&#1086;&#1087;&#1099;&#1090;&#1082;&#1091; &#1076;&#1086;&#1089;&#1090;&#1091;&#1087;&#1072; (&#1060;&#1058;-003.04)</text><rect fill="#F1F1F1" height="34.1328" rx="12.5" ry="12.5" style="stroke:#181818;stroke-width:0.5;" width="359.5156" x="429.9402" y="859.4824"/><text fill="#000000" font-family="sans-serif" font-size="12" lengthAdjust="spacing" textLength="339.5156" x="439.9402" y="881.084">&#1044;&#1086;&#1089;&#1090;&#1091;&#1087; &#1082; &#1088;&#1077;&#1089;&#1091;&#1088;&#1089;&#1091; &#1095;&#1077;&#1088;&#1077;&#1079; QR/NFC (&#1060;&#1058;-003.01, &#1060;&#1058;-003.02)</text><rect fill="#F1F1F1" height="34.1328" rx="12.5" ry="12.5" style="stroke:#181818;stroke-width:0.5;" width="161.6797" x="528.8582" y="916.8594"/><text fill="#000000" font-family="sans-serif" font-size="12" lengthAdjust="spacing" textLength="141.6797" x="538.8582" y="938.4609">&#1048;&#1089;&#1087;&#1086;&#1083;&#1100;&#1079;&#1086;&#1074;&#1072;&#1085;&#1080;&#1077; &#1088;&#1077;&#1089;&#1091;&#1088;&#1089;&#1072;</text><rect fill="#F1F1F1" height="34.1328" rx="12.5" ry="12.5" style="stroke:#181818;stroke-width:0.5;" width="348.4824" x="435.4568" y="970.9922"/><text fill="#000000" font-family="sans-serif" font-size="12" lengthAdjust="spacing" textLength="328.4824" x="445.4568" y="992.5938">&#1055;&#1086;&#1083;&#1091;&#1095;&#1077;&#1085;&#1080;&#1077; &#1091;&#1074;&#1077;&#1076;&#1086;&#1084;&#1083;&#1077;&#1085;&#1080;&#1103; &#1086;&#1073; &#1086;&#1082;&#1086;&#1085;&#1095;&#1072;&#1085;&#1080;&#1080; (&#1060;&#1058;-005.01.02)</text><rect fill="none" height="306.752" style="stroke:#000000;stroke-width:1.5;" width="1197.396" x="11" y="1027.125"/><path d="M184.3174,1027.125 L184.3174,1036.6133 L174.3174,1046.6133 L11,1046.6133" fill="none" style="stroke:#000000;stroke-width:1.5;"/><text fill="#000000" font-family="sans-serif" font-size="14" lengthAdjust="spacing" textLength="163.3174" x="14" y="1041.6602">&#1057;&#1080;&#1089;&#1090;&#1077;&#1084;&#1072; &#1073;&#1088;&#1086;&#1085;&#1080;&#1088;&#1086;&#1074;&#1072;&#1085;&#1080;&#1103;</text><rect fill="#555555" height="6" rx="2.5" ry="2.5" style="stroke:#555555;stroke-width:1;" width="1177.396" x="21" y="1063.6133"/><rect fill="#F1F1F1" height="34.1328" rx="12.5" ry="12.5" style="stroke:#181818;stroke-width:0.5;" width="178.2266" x="114.2607" y="1146.9902"/><text fill="#000000" font-family="sans-serif" font-size="12" lengthAdjust="spacing" textLength="158.2266" x="124.2607" y="1168.5918">&#1047;&#1072; 15 &#1084;&#1080;&#1085;&#1091;&#1090; &#1076;&#1086; &#1086;&#1082;&#1086;&#1085;&#1095;&#1072;&#1085;&#1080;&#1103;</text><rect fill="#F1F1F1" height="34.1328" rx="12.5" ry="12.5" style="stroke:#181818;stroke-width:0.5;" width="340.748" x="33" y="1204.3672"/><text fill="#000000" font-family="sans-serif" font-size="12" lengthAdjust="spacing" textLength="320.748" x="43" y="1225.9688">&#1054;&#1090;&#1087;&#1088;&#1072;&#1074;&#1082;&#1072; &#1091;&#1074;&#1077;&#1076;&#1086;&#1084;&#1083;&#1077;&#1085;&#1080;&#1103; &#1086;&#1073; &#1086;&#1082;&#1086;&#1085;&#1095;&#1072;&#1085;&#1080;&#1080; (&#1060;&#1058;-005.01.02)</text><rect fill="#F1F1F1" height="34.1328" rx="12.5" ry="12.5" style="stroke:#181818;stroke-width:0.5;" width="175.6543" x="909.2368" y="1089.6133"/><text fill="#000000" font-family="sans-serif" font-size="12" lengthAdjust="spacing" textLength="155.6543" x="919.2368" y="1111.2148">&#1054;&#1082;&#1086;&#1085;&#1095;&#1072;&#1085;&#1080;&#1077; &#1073;&#1088;&#1086;&#1085;&#1080;&#1088;&#1086;&#1074;&#1072;&#1085;&#1080;&#1103;</text><rect fill="#F1F1F1" height="34.1328" rx="12.5" ry="12.5" style="stroke:#181818;stroke-width:0.5;" width="304.7715" x="844.6782" y="1143.7461"/><text fill="#000000" font-family="sans-serif" font-size="12" lengthAdjust="spacing" textLength="284.7715" x="854.6782" y="1165.3477">&#1044;&#1077;&#1072;&#1082;&#1090;&#1080;&#1074;&#1072;&#1094;&#1080;&#1103; &#1092;&#1080;&#1079;&#1080;&#1095;&#1077;&#1089;&#1082;&#1086;&#1075;&#1086; &#1088;&#1077;&#1089;&#1091;&#1088;&#1089;&#1072; (&#1060;&#1058;-002.02)</text><rect fill="#F1F1F1" height="34.1328" rx="12.5" ry="12.5" style="stroke:#181818;stroke-width:0.5;" width="301.2383" x="846.4448" y="1201.123"/><text fill="#000000" font-family="sans-serif" font-size="12" lengthAdjust="spacing" textLength="281.2383" x="856.4448" y="1222.7246">&#1042;&#1086;&#1079;&#1074;&#1088;&#1072;&#1090; &#1082; &#1089;&#1090;&#1072;&#1085;&#1076;&#1072;&#1088;&#1090;&#1085;&#1086;&#1084;&#1091; &#1087;&#1088;&#1086;&#1092;&#1080;&#1083;&#1102; (&#1060;&#1058;-004.02)</text><path d="M401.748,1255.2559 L401.748,1295.877 A0,0 0 0 0 401.748,1295.877 L787.7319,1295.877 A0,0 0 0 0 787.7319,1295.877 L787.7319,1279.5664 L807.7319,1275.5664 L787.7319,1271.5664 L787.7319,1265.2559 L777.7319,1255.2559 L401.748,1255.2559 A0,0 0 0 0 401.748,1255.2559" fill="#FEFFDD" style="stroke:#181818;stroke-width:0.5;"/><path d="M777.7319,1255.2559 L777.7319,1265.2559 L787.7319,1265.2559 L777.7319,1255.2559" fill="#FEFFDD" style="stroke:#181818;stroke-width:0.5;"/><text fill="#000000" font-family="sans-serif" font-size="13" lengthAdjust="spacing" textLength="364.9839" x="407.748" y="1272.8242">&#1057;&#1080;&#1089;&#1090;&#1077;&#1084;&#1072; &#1084;&#1086;&#1085;&#1080;&#1090;&#1086;&#1088;&#1080;&#1090; &#1079;&#1072;&#1076;&#1077;&#1088;&#1078;&#1082;&#1091; &#1076;&#1077;&#1072;&#1082;&#1090;&#1080;&#1074;&#1072;&#1094;&#1080;&#1080; (&#1060;&#1058;-018.01)</text><text fill="#000000" font-family="sans-serif" font-size="13" lengthAdjust="spacing" textLength="331.2715" x="407.748" y="1288.1348">&#1080; &#1085;&#1072;&#1095;&#1080;&#1089;&#1083;&#1103;&#1077;&#1090; &#1096;&#1090;&#1088;&#1072;&#1092;&#1099; &#1087;&#1088;&#1080; &#1087;&#1088;&#1077;&#1074;&#1099;&#1096;&#1077;&#1085;&#1080;&#1080; (&#1060;&#1058;-018.02)</text><rect fill="#F1F1F1" height="34.1328" rx="12.5" ry="12.5" style="stroke:#181818;stroke-width:0.5;" width="378.6641" x="807.7319" y="1258.5"/><text fill="#000000" font-family="sans-serif" font-size="12" lengthAdjust="spacing" textLength="358.6641" x="817.7319" y="1280.1016">&#1054;&#1090;&#1087;&#1088;&#1072;&#1074;&#1082;&#1072; &#1091;&#1074;&#1077;&#1076;&#1086;&#1084;&#1083;&#1077;&#1085;&#1080;&#1103; &#1087;&#1086; &#1092;&#1072;&#1082;&#1090;&#1091; &#1086;&#1082;&#1086;&#1085;&#1095;&#1072;&#1085;&#1080;&#1103; (&#1060;&#1058;-005.01.02)</text><rect fill="#555555" height="6" rx="2.5" ry="2.5" style="stroke:#555555;stroke-width:1;" width="1177.396" x="21" y="1315.877"/><rect fill="none" height="82.6211" style="stroke:#000000;stroke-width:1.5;" width="336.3672" x="441.5144" y="1343.877"/><path d="M545.9802,1343.877 L545.9802,1353.3652 L535.9802,1363.3652 L441.5144,1363.3652" fill="none" style="stroke:#000000;stroke-width:1.5;"/><text fill="#000000" font-family="sans-serif" font-size="14" lengthAdjust="spacing" textLength="94.4658" x="444.5144" y="1358.4121">&#1055;&#1086;&#1083;&#1100;&#1079;&#1086;&#1074;&#1072;&#1090;&#1077;&#1083;&#1100;</text><rect fill="#F1F1F1" height="34.1328" rx="12.5" ry="12.5" style="stroke:#181818;stroke-width:0.5;" width="316.3672" x="451.5144" y="1380.3652"/><text fill="#000000" font-family="sans-serif" font-size="12" lengthAdjust="spacing" textLength="296.3672" x="461.5144" y="1401.9668">&#1042;&#1086;&#1079;&#1084;&#1086;&#1078;&#1085;&#1086;&#1089;&#1090;&#1100; &#1086;&#1089;&#1090;&#1072;&#1074;&#1080;&#1090;&#1100; &#1086;&#1090;&#1079;&#1099;&#1074;/&#1086;&#1094;&#1077;&#1085;&#1082;&#1091; (&#1060;&#1058;-014.01)</text><ellipse cx="609.698" cy="1457.498" fill="none" rx="11" ry="11" style="stroke:#222222;stroke-width:1;"/><ellipse cx="609.698" cy="1457.498" fill="#222222" rx="6" ry="6" style="stroke:#222222;stroke-width:1;"/><line style="stroke:#181818;stroke-width:1;" x1="609.698" x2="609.698" y1="148.1094" y2="168.1094"/><polygon fill="#181818" points="605.698,158.1094,609.698,168.1094,613.698,158.1094,609.698,162.1094" style="stroke:#181818;stroke-width:1;"/><line style="stroke:#181818;stroke-width:1;" x1="609.698" x2="609.698" y1="300.375" y2="320.375"/><polygon fill="#181818" points="605.698,310.375,609.698,320.375,613.698,310.375,609.698,314.375" style="stroke:#181818;stroke-width:1;"/><line style="stroke:#181818;stroke-width:1;" x1="609.698" x2="609.698" y1="354.5078" y2="374.5078"/><polygon fill="#181818" points="605.698,364.5078,609.698,374.5078,613.698,364.5078,609.698,368.5078" style="stroke:#181818;stroke-width:1;"/><line style="stroke:#181818;stroke-width:1;" x1="609.698" x2="609.698" y1="246.2422" y2="266.2422"/><polygon fill="#181818" points="605.698,256.2422,609.698,266.2422,613.698,256.2422,609.698,260.2422" style="stroke:#181818;stroke-width:1;"/><line style="stroke:#181818;stroke-width:1;" x1="723.311" x2="792.7253" y1="440.6406" y2="440.6406"/><polygon fill="#181818" points="788.7253,347.4414,792.7253,337.4414,796.7253,347.4414,792.7253,343.4414" style="stroke:#181818;stroke-width:1;"/><line style="stroke:#181818;stroke-width:1;" x1="792.7253" x2="792.7253" y1="234.2422" y2="440.6406"/><line style="stroke:#181818;stroke-width:1;" x1="792.7253" x2="621.698" y1="234.2422" y2="234.2422"/><polygon fill="#181818" points="631.698,230.2422,621.698,234.2422,631.698,238.2422,627.698,234.2422" style="stroke:#181818;stroke-width:1;"/><line style="stroke:#181818;stroke-width:1;" x1="609.698" x2="609.698" y1="408.6406" y2="428.6406"/><polygon fill="#181818" points="605.698,418.6406,609.698,428.6406,613.698,418.6406,609.698,422.6406" style="stroke:#181818;stroke-width:1;"/><line style="stroke:#181818;stroke-width:1;" x1="609.698" x2="609.698" y1="202.2422" y2="222.2422"/><polygon fill="#181818" points="605.698,212.2422,609.698,222.2422,613.698,212.2422,609.698,216.2422" style="stroke:#181818;stroke-width:1;"/><line style="stroke:#181818;stroke-width:1;" x1="609.698" x2="609.698" y1="452.6406" y2="484.7754"/><polygon fill="#181818" points="605.698,474.7754,609.698,484.7754,613.698,474.7754,609.698,478.7754" style="stroke:#181818;stroke-width:1;"/><line style="stroke:#181818;stroke-width:1;" x1="609.698" x2="609.698" y1="518.9082" y2="538.9082"/><polygon fill="#181818" points="605.698,528.9082,609.698,538.9082,613.698,528.9082,609.698,532.9082" style="stroke:#181818;stroke-width:1;"/><line style="stroke:#181818;stroke-width:1;" x1="609.698" x2="609.698" y1="67.4883" y2="113.9766"/><polygon fill="#181818" points="605.698,103.9766,609.698,113.9766,613.698,103.9766,609.698,107.9766" style="stroke:#181818;stroke-width:1;"/><line style="stroke:#181818;stroke-width:1;" x1="435.8357" x2="435.8357" y1="717.8613" y2="737.8613"/><polygon fill="#181818" points="431.8357,727.8613,435.8357,737.8613,439.8357,727.8613,435.8357,731.8613" style="stroke:#181818;stroke-width:1;"/><line style="stroke:#181818;stroke-width:1;" x1="820.1843" x2="820.1843" y1="717.8613" y2="737.8613"/><polygon fill="#181818" points="816.1843,727.8613,820.1843,737.8613,824.1843,727.8613,820.1843,731.8613" style="stroke:#181818;stroke-width:1;"/><line style="stroke:#181818;stroke-width:1;" x1="435.8357" x2="435.8357" y1="663.7285" y2="683.7285"/><polygon fill="#181818" points="431.8357,673.7285,435.8357,683.7285,439.8357,673.7285,435.8357,677.7285" style="stroke:#181818;stroke-width:1;"/><line style="stroke:#181818;stroke-width:1;" x1="820.1843" x2="820.1843" y1="663.7285" y2="683.7285"/><polygon fill="#181818" points="816.1843,673.7285,820.1843,683.7285,824.1843,673.7285,820.1843,677.7285" style="stroke:#181818;stroke-width:1;"/><line style="stroke:#181818;stroke-width:1;" x1="435.8357" x2="435.8357" y1="771.9941" y2="791.9941"/><polygon fill="#181818" points="431.8357,781.9941,435.8357,791.9941,439.8357,781.9941,435.8357,785.9941" style="stroke:#181818;stroke-width:1;"/><line style="stroke:#181818;stroke-width:1;" x1="820.1843" x2="820.1843" y1="771.9941" y2="791.9941"/><polygon fill="#181818" points="816.1843,781.9941,820.1843,791.9941,824.1843,781.9941,820.1843,785.9941" style="stroke:#181818;stroke-width:1;"/><line style="stroke:#181818;stroke-width:1;" x1="609.698" x2="609.698" y1="573.041" y2="657.7285"/><polygon fill="#181818" points="605.698,647.7285,609.698,657.7285,613.698,647.7285,609.698,651.7285" style="stroke:#181818;stroke-width:1;"/><text fill="#000000" font-family="sans-serif" font-size="11" lengthAdjust="spacing" textLength="344.5933" x="613.698" y="609.7402">&#1059;&#1074;&#1077;&#1076;&#1086;&#1084;&#1083;&#1077;&#1085;&#1080;&#1077; &#1086; &#1087;&#1086;&#1076;&#1090;&#1074;&#1077;&#1088;&#1078;&#1076;&#1077;&#1085;&#1080;&#1080; &#1073;&#1088;&#1086;&#1085;&#1080;&#1088;&#1086;&#1074;&#1072;&#1085;&#1080;&#1103; (&#1060;&#1058;-005.01.03)</text><line style="stroke:#181818;stroke-width:1;" x1="609.698" x2="609.698" y1="893.6152" y2="916.8594"/><polygon fill="#181818" points="605.698,906.8594,609.698,916.8594,613.698,906.8594,609.698,910.8594" style="stroke:#181818;stroke-width:1;"/><line style="stroke:#181818;stroke-width:1;" x1="609.698" x2="609.698" y1="950.9922" y2="970.9922"/><polygon fill="#181818" points="605.698,960.9922,609.698,970.9922,613.698,960.9922,609.698,964.9922" style="stroke:#181818;stroke-width:1;"/><line style="stroke:#181818;stroke-width:1;" x1="609.698" x2="609.698" y1="797.9941" y2="859.4824"/><polygon fill="#181818" points="605.698,849.4824,609.698,859.4824,613.698,849.4824,609.698,853.4824" style="stroke:#181818;stroke-width:1;"/><line style="stroke:#181818;stroke-width:1;" x1="203.374" x2="203.374" y1="1181.123" y2="1204.3672"/><polygon fill="#181818" points="199.374,1194.3672,203.374,1204.3672,207.374,1194.3672,203.374,1198.3672" style="stroke:#181818;stroke-width:1;"/><line style="stroke:#181818;stroke-width:1;" x1="997.064" x2="997.064" y1="1123.7461" y2="1143.7461"/><polygon fill="#181818" points="993.064,1133.7461,997.064,1143.7461,1001.064,1133.7461,997.064,1137.7461" style="stroke:#181818;stroke-width:1;"/><line style="stroke:#181818;stroke-width:1;" x1="997.064" x2="997.064" y1="1177.8789" y2="1201.123"/><polygon fill="#181818" points="993.064,1191.123,997.064,1201.123,1001.064,1191.123,997.064,1195.123" style="stroke:#181818;stroke-width:1;"/><line style="stroke:#181818;stroke-width:1;" x1="997.064" x2="997.064" y1="1235.2559" y2="1258.5"/><polygon fill="#181818" points="993.064,1248.5,997.064,1258.5,1001.064,1248.5,997.064,1252.5" style="stroke:#181818;stroke-width:1;"/><line style="stroke:#181818;stroke-width:1;" x1="203.374" x2="203.374" y1="1069.6133" y2="1146.9902"/><polygon fill="#181818" points="199.374,1136.9902,203.374,1146.9902,207.374,1136.9902,203.374,1140.9902" style="stroke:#181818;stroke-width:1;"/><line style="stroke:#181818;stroke-width:1;" x1="997.064" x2="997.064" y1="1069.6133" y2="1089.6133"/><polygon fill="#181818" points="993.064,1079.6133,997.064,1089.6133,1001.064,1079.6133,997.064,1083.6133" style="stroke:#181818;stroke-width:1;"/><line style="stroke:#181818;stroke-width:1;" x1="203.374" x2="203.374" y1="1238.5" y2="1315.877"/><polygon fill="#181818" points="199.374,1305.877,203.374,1315.877,207.374,1305.877,203.374,1309.877" style="stroke:#181818;stroke-width:1;"/><line style="stroke:#181818;stroke-width:1;" x1="997.064" x2="997.064" y1="1292.6328" y2="1315.877"/><polygon fill="#181818" points="993.064,1305.877,997.064,1315.877,1001.064,1305.877,997.064,1309.877" style="stroke:#181818;stroke-width:1;"/><line style="stroke:#181818;stroke-width:1;" x1="609.698" x2="609.698" y1="1005.125" y2="1063.6133"/><polygon fill="#181818" points="605.698,1053.6133,609.698,1063.6133,613.698,1053.6133,609.698,1057.6133" style="stroke:#181818;stroke-width:1;"/><line style="stroke:#181818;stroke-width:1;" x1="609.698" x2="609.698" y1="1321.877" y2="1380.3652"/><polygon fill="#181818" points="605.698,1370.3652,609.698,1380.3652,613.698,1370.3652,609.698,1374.3652" style="stroke:#181818;stroke-width:1;"/><line style="stroke:#181818;stroke-width:1;" x1="609.698" x2="609.698" y1="1414.498" y2="1446.498"/><polygon fill="#181818" points="605.698,1436.498,609.698,1446.498,613.698,1436.498,609.698,1440.498" style="stroke:#181818;stroke-width:1;"/><!--SRC=[hLRTIXj15BxVfnYyCb2hYGgbGcyAlIoqVOAbhcPH4qaMf1GXCQ4AYXOHsfkQ_Zt09cPDcjzNc7cZVkVCPdSdSMjggo6PdPqvFz_vlZDJtd4B-tR9tXFblBrPF70BssBBtYqxLZbwOx_rYgKtthjTHzW7JhcuvrYMvtfub0rLaIFrGGQgggf2DkbH3cMNVrlIv_65a5ryL5MECTjNPx9ZlCLYsbzJ5IpnBQlisINFik0SNjnYGIp8XhbH7Sc0dXV4UqlWxwcynbGF1axnsvM1a6DOxSe-rjzYBJjQnjP0DfSmFoGBM5x7n2_okX7QqGbLvG3VHweYP9iUCQmX-A4U8niZP8Ga5kLF-NrfPINxc3yPRQ_ax3ksnqDj_bAToYQiLAQIJkxFnVkdDo4QvAvE6T0McK2Wd5qwzgRbd66v4Qu55BA7A5AoDPDRDP8J1taNJ5YKN-Dy1FO6XYt4ABWSSTn4Ymv5gIxWP9GHRXbMgD0jUgRoOVCPhG_JpuX2qQCr77MRA87YyghCf7pq0jjrIhTOnEWG8LBmcHJ-6b7scLd-lLXcLs8Wbvu9-OE9HG4DO2FoE19C-BlYcQDUwmROoDmH9NSx7xD9VYDDiHG629fHlT5J35u5o0VgACMJ3693u7ETHC7LO3wZZkT8W2g7JJuKtiL48lrLZRXJsEJGh4DJhsPeQRbEvBjLBEqaMFa53e-nfay8_h5iiVP9xZvU4ukHzqmzGhQ9xBh093M06a7J9XV3o9y_XVv4XnIWiBTjjv1m-n4DXvfDAyJdGgFOmV2Oj81OHYZ8A4tgCpflSClIWev8DEQyRpYz0Vw7eL7zWZts4wnPYurIRHZPmx_ifLUnS8Ni6U6hck3aY6iTyUhryiiNpoFVg_3zICGFkRcvotL5Sq0zxkTjqbz8mv35tEvlaYP8VsC-57e8tMX9VjBEsXITDH2Vxpwo489Pqer4z-bZyZWgNneLHx99NyIG8NDFDmMJVOJV_zJLfnJ-JyNnC77DdL6gdgwdDWTpYVyA8VZ_haJpNBp4-WuVL3wX10qGwEIT3k0AnYJ30L4gASFpf0nDY_F2EAOewpeZCZzJcnH48vtjEbknpEwIsY14D3fZzJ7S3a-eK2SpeCQrp3wX7cFww4wwADtoq8zOVUg4Jo9VrUd6mXSo_HFGcQvEehCmOJWN6pR4-E1cfaivu7jWUAEXIyKeh6XhSil0TKzsSDDeBUiBBHOJ59FGmhvwIBVJulvl]--></g></svg>