<svg xmlns="http://www.w3.org/2000/svg" xmlns:xlink="http://www.w3.org/1999/xlink" contentStyleType="text/css" data-diagram-type="STATE" height="492px" preserveAspectRatio="none" style="width:1990px;height:492px;background:#FFFFFF;" version="1.1" viewBox="0 0 1990 492" width="1990px" zoomAndPan="magnify"><defs/><g><path d="M19.5,7 L1964.686,7 A12.5,12.5 0 0 1 1977.186,19.5 L1977.186,33.4883 L7,33.4883 L7,19.5 A12.5,12.5 0 0 1 19.5,7" fill="#F1F1F1"/><rect fill="none" height="479.4883" rx="12.5" ry="12.5" style="stroke:#181818;stroke-width:0.5;" width="1970.186" x="7" y="7"/><line style="stroke:#181818;stroke-width:0.5;" x1="7" x2="1977.186" y1="33.4883" y2="33.4883"/><text fill="#000000" font-family="sans-serif" font-size="14" lengthAdjust="spacing" textLength="46.1768" x="969.0046" y="25.5352">&#1056;&#1077;&#1089;&#1091;&#1088;&#1089;</text><g id="Resource........."><rect fill="#F1F1F1" height="50" rx="12.5" ry="12.5" style="stroke:#181818;stroke-width:0.5;" width="86.9854" x="635.73" y="117.4883"/><line style="stroke:#181818;stroke-width:0.5;" x1="635.73" x2="722.7154" y1="143.9766" y2="143.9766"/><text fill="#000000" font-family="sans-serif" font-size="14" lengthAdjust="spacing" textLength="66.9854" x="645.73" y="136.0234">&#1044;&#1086;&#1089;&#1090;&#1091;&#1087;&#1085;&#1086;</text></g><g id="Resource.............."><rect fill="#F1F1F1" height="50" rx="12.5" ry="12.5" style="stroke:#181818;stroke-width:0.5;" width="128.459" x="200" y="220.4883"/><line style="stroke:#181818;stroke-width:0.5;" x1="200" x2="328.459" y1="246.9766" y2="246.9766"/><text fill="#000000" font-family="sans-serif" font-size="14" lengthAdjust="spacing" textLength="108.459" x="210" y="239.0234">&#1047;&#1072;&#1073;&#1088;&#1086;&#1085;&#1080;&#1088;&#1086;&#1074;&#1072;&#1085;&#1086;</text></g><g id="Resource............."><rect fill="#F1F1F1" height="50" rx="12.5" ry="12.5" style="stroke:#181818;stroke-width:0.5;" width="113.5498" x="589.45" y="323.4883"/><line style="stroke:#181818;stroke-width:0.5;" x1="589.45" x2="702.9998" y1="349.9766" y2="349.9766"/><text fill="#000000" font-family="sans-serif" font-size="14" lengthAdjust="spacing" textLength="93.5498" x="599.45" y="342.0234">&#1048;&#1089;&#1087;&#1086;&#1083;&#1100;&#1079;&#1091;&#1077;&#1090;&#1089;&#1103;</text></g><g id="Resource..........."><rect fill="#F1F1F1" height="50" rx="12.5" ry="12.5" style="stroke:#181818;stroke-width:0.5;" width="103.8086" x="1030.32" y="426.4883"/><line style="stroke:#181818;stroke-width:0.5;" x1="1030.32" x2="1134.1286" y1="452.9766" y2="452.9766"/><text fill="#000000" font-family="sans-serif" font-size="14" lengthAdjust="spacing" textLength="83.8086" x="1040.32" y="445.0234">&#1053;&#1077;&#1076;&#1086;&#1089;&#1090;&#1091;&#1087;&#1085;&#1086;</text></g><g id="Resource.........."><rect fill="#F1F1F1" height="50" rx="12.5" ry="12.5" style="stroke:#181818;stroke-width:0.5;" width="104.6289" x="1100.91" y="220.4883"/><line style="stroke:#181818;stroke-width:0.5;" x1="1100.91" x2="1205.5389" y1="246.9766" y2="246.9766"/><text fill="#000000" font-family="sans-serif" font-size="14" lengthAdjust="spacing" textLength="84.6289" x="1110.91" y="239.0234">&#1058;&#1077;&#1093;. &#1088;&#1072;&#1073;&#1086;&#1090;&#1099;</text></g><ellipse cx="679.22" cy="54.4883" fill="#222222" rx="10" ry="10" style="stroke:#222222;stroke-width:1;"/><!--link *start*Resource to ????????--><g class="link" data-entity-1=".start.Resource" data-entity-2="........" data-source-line="2" data-uid="lnk3" id="link_.start.Resource_........"><path d="M679.22,64.6883 C679.22,77.0883 679.22,93.5983 679.22,111.0483" fill="none" id="*start*Resource-to-&#1044;&#1086;&#1089;&#1090;&#1091;&#1087;&#1085;&#1086;" style="stroke:#181818;stroke-width:1;"/><polygon fill="#181818" points="679.22,117.0483,683.22,108.0483,679.22,112.0483,675.22,108.0483,679.22,117.0483" style="stroke:#181818;stroke-width:1;"/><text fill="#000000" font-family="sans-serif" font-size="13" lengthAdjust="spacing" textLength="201.1826" x="680.22" y="96.0566">&#1048;&#1085;&#1080;&#1094;&#1080;&#1072;&#1083;&#1080;&#1079;&#1072;&#1094;&#1080;&#1103; / &#1044;&#1077;&#1072;&#1082;&#1090;&#1080;&#1074;&#1072;&#1094;&#1080;&#1103;</text></g><!--link ???????? to ?????????????--><g class="link" data-entity-1="........" data-entity-2="............." data-source-line="4" data-uid="lnk4" id="link_........_............."><path d="M635.52,146.6883 C592.04,151.1383 524.19,161.5583 470.22,185.4883 C458.6,190.6383 458.77,197.1783 447.22,202.4883 C409.76,219.7183 370.5541,229.1666 334.4841,235.3366" fill="none" id="&#1044;&#1086;&#1089;&#1090;&#1091;&#1087;&#1085;&#1086;-to-&#1047;&#1072;&#1073;&#1088;&#1086;&#1085;&#1080;&#1088;&#1086;&#1074;&#1072;&#1085;&#1086;" style="stroke:#181818;stroke-width:1;"/><polygon fill="#181818" points="328.57,236.3483,338.1156,238.7735,333.4984,235.5052,336.7667,230.8881,328.57,236.3483" style="stroke:#181818;stroke-width:1;"/><text fill="#000000" font-family="sans-serif" font-size="13" lengthAdjust="spacing" textLength="160.8369" x="471.22" y="199.0566">&#1055;&#1086;&#1083;&#1100;&#1079;&#1086;&#1074;&#1072;&#1090;&#1077;&#1083;&#1100; &#1073;&#1088;&#1086;&#1085;&#1080;&#1088;&#1091;&#1077;&#1090;</text></g><!--link ???????? to ??????????--><g class="link" data-entity-1="........" data-entity-2=".........." data-source-line="5" data-uid="lnk5" id="link_........_.........."><path d="M722.81,143.4983 C846.84,143.9683 1195.05,148.6083 1229.22,185.4883 C1234.43,191.1083 1259,336.4483 1200.22,408.4883 C1184.14,428.1983 1163.9496,437.2903 1140.4296,442.8403" fill="none" id="&#1044;&#1086;&#1089;&#1090;&#1091;&#1087;&#1085;&#1086;-to-&#1053;&#1077;&#1076;&#1086;&#1089;&#1090;&#1091;&#1087;&#1085;&#1086;" style="stroke:#181818;stroke-width:1;"/><polygon fill="#181818" points="1134.59,444.2183,1144.2681,446.0444,1139.4564,443.07,1142.4308,438.2582,1134.59,444.2183" style="stroke:#181818;stroke-width:1;"/><text fill="#000000" font-family="sans-serif" font-size="13" lengthAdjust="spacing" textLength="323.4131" x="1239.13" y="302.0566">&#1040;&#1076;&#1084;&#1080;&#1085;&#1080;&#1089;&#1090;&#1088;&#1072;&#1090;&#1086;&#1088; &#1073;&#1083;&#1086;&#1082;&#1080;&#1088;&#1091;&#1077;&#1090; / &#1054;&#1090;&#1082;&#1072;&#1079; &#1086;&#1073;&#1086;&#1088;&#1091;&#1076;&#1086;&#1074;&#1072;&#1085;&#1080;&#1103;</text></g><!--link ???????? to ?????????--><g class="link" data-entity-1="........" data-entity-2="........." data-source-line="6" data-uid="lnk6" id="link_........_........."><path d="M672.6,167.6983 C670.87,179.7083 671.51,193.5283 680.22,202.4883 C711.79,234.9283 1042.83,211.6483 1087.22,220.4883 C1091.65,221.3683 1090.398,220.8601 1094.908,222.1401" fill="none" id="&#1044;&#1086;&#1089;&#1090;&#1091;&#1087;&#1085;&#1086;-to-&#1058;&#1077;&#1093;&#1056;&#1072;&#1073;&#1086;&#1090;&#1099;" style="stroke:#181818;stroke-width:1;"/><polygon fill="#181818" points="1100.68,223.7783,1093.1141,217.473,1095.87,222.4131,1090.9298,225.169,1100.68,223.7783" style="stroke:#181818;stroke-width:1;"/><text fill="#000000" font-family="sans-serif" font-size="13" lengthAdjust="spacing" textLength="267.4839" x="681.22" y="199.0566">&#1040;&#1076;&#1084;&#1080;&#1085;&#1080;&#1089;&#1090;&#1088;&#1072;&#1090;&#1086;&#1088; &#1087;&#1077;&#1088;&#1077;&#1074;&#1086;&#1076;&#1080;&#1090; &#1074; &#1090;&#1077;&#1093;. &#1088;&#1072;&#1073;&#1086;&#1090;&#1099;</text></g><!--link ????????????? to ????????????--><g class="link" data-entity-1="............." data-entity-2="............" data-source-line="10" data-uid="lnk7" id="link_............._............"><path d="M265.35,270.7883 C267.27,283.1383 271.82,297.2383 282.22,305.4883 C306.05,324.3683 525.22,318.5883 555.22,323.4883 C566.35,325.3083 572.2688,326.4343 583.4788,329.2343" fill="none" id="&#1047;&#1072;&#1073;&#1088;&#1086;&#1085;&#1080;&#1088;&#1086;&#1074;&#1072;&#1085;&#1086;-to-&#1048;&#1089;&#1087;&#1086;&#1083;&#1100;&#1079;&#1091;&#1077;&#1090;&#1089;&#1103;" style="stroke:#181818;stroke-width:1;"/><polygon fill="#181818" points="589.3,330.6883,581.5376,324.6265,584.449,329.4766,579.5989,332.3881,589.3,330.6883" style="stroke:#181818;stroke-width:1;"/><text fill="#000000" font-family="sans-serif" font-size="13" lengthAdjust="spacing" textLength="348.5498" x="283.22" y="302.0566">&#1053;&#1072;&#1089;&#1090;&#1091;&#1087;&#1083;&#1077;&#1085;&#1080;&#1077; &#1074;&#1088;&#1077;&#1084;&#1077;&#1085;&#1080; &#1073;&#1088;&#1086;&#1085;&#1080;&#1088;&#1086;&#1074;&#1072;&#1085;&#1080;&#1103; (&#1072;&#1074;&#1090;&#1086;&#1084;&#1072;&#1090;&#1080;&#1095;&#1077;&#1089;&#1082;&#1080;)</text></g><!--link ????????????? to ????????--><g class="link" data-entity-1="............." data-entity-2="........" data-source-line="11" data-uid="lnk8" id="link_............._........"><path d="M199.73,244.5183 C125.2,242.4583 18,231.7483 61.22,185.4883 C100.27,143.6983 495.2401,142.3252 629.6101,143.0652" fill="none" id="&#1047;&#1072;&#1073;&#1088;&#1086;&#1085;&#1080;&#1088;&#1086;&#1074;&#1072;&#1085;&#1086;-to-&#1044;&#1086;&#1089;&#1090;&#1091;&#1087;&#1085;&#1086;" style="stroke:#181818;stroke-width:1;"/><polygon fill="#181818" points="635.61,143.0983,626.6322,139.0488,630.6101,143.0707,626.5881,147.0487,635.61,143.0983" style="stroke:#181818;stroke-width:1;"/><text fill="#000000" font-family="sans-serif" font-size="13" lengthAdjust="spacing" textLength="380.2119" x="62.22" y="199.0566">&#1054;&#1090;&#1084;&#1077;&#1085;&#1072; &#1073;&#1088;&#1086;&#1085;&#1080;&#1088;&#1086;&#1074;&#1072;&#1085;&#1080;&#1103; (&#1087;&#1086;&#1083;&#1100;&#1079;&#1086;&#1074;&#1072;&#1090;&#1077;&#1083;&#1077;&#1084;/&#1072;&#1076;&#1084;&#1080;&#1085;&#1080;&#1089;&#1090;&#1088;&#1072;&#1090;&#1086;&#1088;&#1086;&#1084;)</text></g><!--link ????????????? to ??????????--><g class="link" data-entity-1="............." data-entity-2=".........." data-source-line="12" data-uid="lnk9" id="link_............._.........."><path d="M258.38,270.8783 C253.04,299.8983 249.65,347.6483 277.22,373.4883 C332.16,424.9683 854.2025,444.0655 1023.9525,448.9555" fill="none" id="&#1047;&#1072;&#1073;&#1088;&#1086;&#1085;&#1080;&#1088;&#1086;&#1074;&#1072;&#1085;&#1086;-to-&#1053;&#1077;&#1076;&#1086;&#1089;&#1090;&#1091;&#1087;&#1085;&#1086;" style="stroke:#181818;stroke-width:1;"/><polygon fill="#181818" points="1029.95,449.1283,1021.0689,444.8708,1024.9521,448.9843,1020.8386,452.8675,1029.95,449.1283" style="stroke:#181818;stroke-width:1;"/><text fill="#000000" font-family="sans-serif" font-size="13" lengthAdjust="spacing" textLength="301.5645" x="278.22" y="353.5566">&#1054;&#1090;&#1082;&#1072;&#1079; &#1086;&#1073;&#1086;&#1088;&#1091;&#1076;&#1086;&#1074;&#1072;&#1085;&#1080;&#1103; (&#1074;&#1086; &#1074;&#1088;&#1077;&#1084;&#1103; &#1073;&#1088;&#1086;&#1085;&#1080;&#1088;&#1086;&#1074;&#1072;&#1085;&#1080;&#1103;)</text></g><!--link ???????????? to ????????--><g class="link" data-entity-1="............" data-entity-2="........" data-source-line="16" data-uid="lnk10" id="link_............_........"><path d="M646.28,323.3983 C646.72,297.6983 648.55,255.8983 655.22,220.4883 C658.63,202.4583 662.8455,188.3806 668.0955,173.4006" fill="none" id="&#1048;&#1089;&#1087;&#1086;&#1083;&#1100;&#1079;&#1091;&#1077;&#1090;&#1089;&#1103;-to-&#1044;&#1086;&#1089;&#1090;&#1091;&#1087;&#1085;&#1086;" style="stroke:#181818;stroke-width:1;"/><polygon fill="#181818" points="670.08,167.7383,663.3284,174.9088,668.4263,172.4569,670.8782,177.5547,670.08,167.7383" style="stroke:#181818;stroke-width:1;"/><text fill="#000000" font-family="sans-serif" font-size="13" lengthAdjust="spacing" textLength="435.0112" x="656.22" y="250.5566">&#1054;&#1082;&#1086;&#1085;&#1095;&#1072;&#1085;&#1080;&#1077; &#1074;&#1088;&#1077;&#1084;&#1077;&#1085;&#1080; &#1073;&#1088;&#1086;&#1085;&#1080;&#1088;&#1086;&#1074;&#1072;&#1085;&#1080;&#1103; (&#1072;&#1074;&#1090;&#1086;&#1084;&#1072;&#1090;&#1080;&#1095;&#1077;&#1089;&#1082;&#1080;) / &#1044;&#1077;&#1072;&#1082;&#1090;&#1080;&#1074;&#1072;&#1094;&#1080;&#1103;</text></g><!--link ???????????? to ??????????--><g class="link" data-entity-1="............" data-entity-2=".........." data-source-line="17" data-uid="lnk11" id="link_............_.........."><path d="M703.22,362.6883 C788.4,382.4183 941.8148,417.9642 1024.1348,437.0342" fill="none" id="&#1048;&#1089;&#1087;&#1086;&#1083;&#1100;&#1079;&#1091;&#1077;&#1090;&#1089;&#1103;-to-&#1053;&#1077;&#1076;&#1086;&#1089;&#1090;&#1091;&#1087;&#1085;&#1086;" style="stroke:#181818;stroke-width:1;"/><polygon fill="#181818" points="1029.98,438.3883,1022.1149,432.4604,1025.109,437.2599,1020.3095,440.254,1029.98,438.3883" style="stroke:#181818;stroke-width:1;"/><text fill="#000000" font-family="sans-serif" font-size="13" lengthAdjust="spacing" textLength="304.4907" x="891.33" y="405.0566">&#1054;&#1090;&#1082;&#1072;&#1079; &#1086;&#1073;&#1086;&#1088;&#1091;&#1076;&#1086;&#1074;&#1072;&#1085;&#1080;&#1103; (&#1074;&#1086; &#1074;&#1088;&#1077;&#1084;&#1103; &#1080;&#1089;&#1087;&#1086;&#1083;&#1100;&#1079;&#1086;&#1074;&#1072;&#1085;&#1080;&#1103;)</text></g><!--link ?????????? to ????????--><g class="link" data-entity-1=".........." data-entity-2="........" data-source-line="21" data-uid="lnk12" id="link_.........._........"><path d="M1134.48,451.2583 C1280.84,451.5983 1677.08,438.9683 1567.22,288.4883 C1466.37,150.3383 894.21,142.4165 729.19,143.0165" fill="none" id="&#1053;&#1077;&#1076;&#1086;&#1089;&#1090;&#1091;&#1087;&#1085;&#1086;-to-&#1044;&#1086;&#1089;&#1090;&#1091;&#1087;&#1085;&#1086;" style="stroke:#181818;stroke-width:1;"/><polygon fill="#181818" points="723.19,143.0383,732.2045,147.0055,728.19,143.0201,732.1754,139.0056,723.19,143.0383" style="stroke:#181818;stroke-width:1;"/><text fill="#000000" font-family="sans-serif" font-size="13" lengthAdjust="spacing" textLength="388.686" x="1578.5" y="302.0566">&#1059;&#1089;&#1090;&#1088;&#1072;&#1085;&#1077;&#1085;&#1080;&#1077; &#1085;&#1077;&#1080;&#1089;&#1087;&#1088;&#1072;&#1074;&#1085;&#1086;&#1089;&#1090;&#1080; / &#1040;&#1076;&#1084;&#1080;&#1085;&#1080;&#1089;&#1090;&#1088;&#1072;&#1090;&#1086;&#1088; &#1088;&#1072;&#1079;&#1073;&#1083;&#1086;&#1082;&#1080;&#1088;&#1091;&#1077;&#1090;</text></g><!--link ????????? to ????????--><g class="link" data-entity-1="........." data-entity-2="........" data-source-line="25" data-uid="lnk13" id="link_........._........"><path d="M1100.55,224.3183 C1096.08,222.9183 1091.59,221.6083 1087.22,220.4883 C1037.13,207.5883 1019.96,222.4383 972.22,202.4883 C960.5,197.5883 960.96,190.3883 949.22,185.4883 C873.93,154.0583 783.9261,146.1235 729.0361,144.1535" fill="none" id="&#1058;&#1077;&#1093;&#1056;&#1072;&#1073;&#1086;&#1090;&#1099;-to-&#1044;&#1086;&#1089;&#1090;&#1091;&#1087;&#1085;&#1086;" style="stroke:#181818;stroke-width:1;"/><polygon fill="#181818" points="723.04,143.9383,731.8907,148.2585,728.0368,144.1176,732.1777,140.2637,723.04,143.9383" style="stroke:#181818;stroke-width:1;"/><text fill="#000000" font-family="sans-serif" font-size="13" lengthAdjust="spacing" textLength="255.106" x="973.22" y="199.0566">&#1040;&#1076;&#1084;&#1080;&#1085;&#1080;&#1089;&#1090;&#1088;&#1072;&#1090;&#1086;&#1088; &#1079;&#1072;&#1074;&#1077;&#1088;&#1096;&#1072;&#1077;&#1090; &#1090;&#1077;&#1093;. &#1088;&#1072;&#1073;&#1086;&#1090;&#1099;</text></g><!--SRC=[hLL1Ji9G4DrxYWahCG7sBZo4M-E26DOc5bV6f9IW9fhWmaGsgD4Bb8Qc3M2vmioDVFDhQqtxMnPq0Rypy-UzcJSCph0_752BFpYKaOp5bL6B-WwT3fpBwwkB0TqS49wpetFgT4voSvTVEC45JyQyvMzEw9XuXaCiTnoppsjyHkphcqofHuWFOLw91qUGEKnknr0e9Ko1zIcvb0c_8jr2N4uCgduZRKRb7QzhUG85OmPggEzKl85qeNWDA7DSN9PBVOPnWqeqaRfSWv682mJKdl3g3q6hVuDt1NeHmRVGGFYMEUUi5NOUdyWqWKg-kUt9OmEBBU9TS0-0iOJR8mv8so2JBcbWbiVWtXuKbR1tjg29FSZmdSa877v5IFi0YbDbFGVBhBurAE8-Xw1d-6vI0rNcrb4wn2dGAX6grSPohwEh3M_lpAvYU5MX5Dol0zzM3PRoxY78eePotPsRPUAQ9mZie7RUI1XiTRGhHBS9Lf3S5c9jAGW37GBvUnIvVfaq4zrdV-CYK5E7gu0BtQrosphxbGqO3FaFI8-6a7446gjXw7ElRbMOwAYyjieLjD8jz7z_c7-BYlLKgApijDLLiz0YKnEMcZpWf6krPfk1zWy0]--></g></svg>