<svg xmlns="http://www.w3.org/2000/svg" xmlns:xlink="http://www.w3.org/1999/xlink" contentStyleType="text/css" data-diagram-type="STATE" height="492px" preserveAspectRatio="none" style="width:1467px;height:492px;background:#FFFFFF;" version="1.1" viewBox="0 0 1467 492" width="1467px" zoomAndPan="magnify"><defs/><g><path d="M19.5,7 L1441.7941,7 A12.5,12.5 0 0 1 1454.2941,19.5 L1454.2941,33.4883 L7,33.4883 L7,19.5 A12.5,12.5 0 0 1 19.5,7" fill="#F1F1F1"/><rect fill="none" height="479.4883" rx="12.5" ry="12.5" style="stroke:#181818;stroke-width:0.5;" width="1447.2941" x="7" y="7"/><line style="stroke:#181818;stroke-width:0.5;" x1="7" x2="1454.2941" y1="33.4883" y2="33.4883"/><text fill="#000000" font-family="sans-serif" font-size="14" lengthAdjust="spacing" textLength="100.9258" x="680.1841" y="25.5352">&#1041;&#1088;&#1086;&#1085;&#1080;&#1088;&#1086;&#1074;&#1072;&#1085;&#1080;&#1077;</text><ellipse cx="859.12" cy="54.4883" fill="#222222" rx="10" ry="10" style="stroke:#222222;stroke-width:1;"/><g id="Booking.............."><rect fill="#F1F1F1" height="50" rx="12.5" ry="12.5" style="stroke:#181818;stroke-width:0.5;" width="134.3311" x="791.95" y="117.4883"/><line style="stroke:#181818;stroke-width:0.5;" x1="791.95" x2="926.2811" y1="143.9766" y2="143.9766"/><text fill="#000000" font-family="sans-serif" font-size="14" lengthAdjust="spacing" textLength="114.3311" x="801.95" y="136.0234">&#1054;&#1078;&#1080;&#1076;&#1072;&#1077;&#1090;&#1054;&#1087;&#1083;&#1072;&#1090;&#1099;</text></g><g id="Booking............."><rect fill="#F1F1F1" height="50" rx="12.5" ry="12.5" style="stroke:#181818;stroke-width:0.5;" width="123.9404" x="608.15" y="220.4883"/><line style="stroke:#181818;stroke-width:0.5;" x1="608.15" x2="732.0904" y1="246.9766" y2="246.9766"/><text fill="#000000" font-family="sans-serif" font-size="14" lengthAdjust="spacing" textLength="103.9404" x="618.15" y="239.0234">&#1055;&#1086;&#1076;&#1090;&#1074;&#1077;&#1088;&#1078;&#1076;&#1077;&#1085;&#1086;</text></g><g id="Booking........."><rect fill="#F1F1F1" height="50" rx="12.5" ry="12.5" style="stroke:#181818;stroke-width:0.5;" width="89.6992" x="821.27" y="426.4883"/><line style="stroke:#181818;stroke-width:0.5;" x1="821.27" x2="910.9692" y1="452.9766" y2="452.9766"/><text fill="#000000" font-family="sans-serif" font-size="14" lengthAdjust="spacing" textLength="69.6992" x="831.27" y="445.0234">&#1054;&#1090;&#1084;&#1077;&#1085;&#1077;&#1085;&#1086;</text></g><g id="Booking........"><rect fill="#F1F1F1" height="50" rx="12.5" ry="12.5" style="stroke:#181818;stroke-width:0.5;" width="77.9346" x="212.15" y="323.4883"/><line style="stroke:#181818;stroke-width:0.5;" x1="212.15" x2="290.0846" y1="349.9766" y2="349.9766"/><text fill="#000000" font-family="sans-serif" font-size="14" lengthAdjust="spacing" textLength="57.9346" x="222.15" y="342.0234">&#1040;&#1082;&#1090;&#1080;&#1074;&#1085;&#1086;</text></g><g id="Booking........."><rect fill="#F1F1F1" height="50" rx="12.5" ry="12.5" style="stroke:#181818;stroke-width:0.5;" width="89.002" x="553.62" y="323.4883"/><line style="stroke:#181818;stroke-width:0.5;" x1="553.62" x2="642.622" y1="349.9766" y2="349.9766"/><text fill="#000000" font-family="sans-serif" font-size="14" lengthAdjust="spacing" textLength="69.002" x="563.62" y="342.0234">&#1048;&#1079;&#1084;&#1077;&#1085;&#1077;&#1085;&#1086;</text></g><g id="Booking.........."><rect fill="#F1F1F1" height="50" rx="12.5" ry="12.5" style="stroke:#181818;stroke-width:0.5;" width="96.2344" x="19" y="426.4883"/><line style="stroke:#181818;stroke-width:0.5;" x1="19" x2="115.2344" y1="452.9766" y2="452.9766"/><text fill="#000000" font-family="sans-serif" font-size="14" lengthAdjust="spacing" textLength="76.2344" x="29" y="445.0234">&#1047;&#1072;&#1074;&#1077;&#1088;&#1096;&#1077;&#1085;&#1086;</text></g><!--link *start*Booking to ?????????????--><g class="link" data-entity-1=".start.Booking" data-entity-2="............." data-source-line="2" data-uid="lnk4" id="link_.start.Booking_............."><path d="M859.12,64.6883 C859.12,77.0883 859.12,93.5983 859.12,111.0483" fill="none" id="*start*Booking-to-&#1054;&#1078;&#1080;&#1076;&#1072;&#1077;&#1090;&#1054;&#1087;&#1083;&#1072;&#1090;&#1099;" style="stroke:#181818;stroke-width:1;"/><polygon fill="#181818" points="859.12,117.0483,863.12,108.0483,859.12,112.0483,855.12,108.0483,859.12,117.0483" style="stroke:#181818;stroke-width:1;"/><text fill="#000000" font-family="sans-serif" font-size="13" lengthAdjust="spacing" textLength="175.1826" x="860.12" y="96.0566">&#1042;&#1099;&#1073;&#1086;&#1088; &#1088;&#1077;&#1089;&#1091;&#1088;&#1089;&#1086;&#1074; &#1080; &#1074;&#1088;&#1077;&#1084;&#1077;&#1085;&#1080;</text></g><!--link ????????????? to ????????????--><g class="link" data-entity-1="............." data-entity-2="............" data-source-line="3" data-uid="lnk6" id="link_............._............"><path d="M813.37,167.9383 C783.76,183.7583 750.652,201.4508 721.062,217.2608" fill="none" id="&#1054;&#1078;&#1080;&#1076;&#1072;&#1077;&#1090;&#1054;&#1087;&#1083;&#1072;&#1090;&#1099;-to-&#1055;&#1086;&#1076;&#1090;&#1074;&#1077;&#1088;&#1078;&#1076;&#1077;&#1085;&#1086;" style="stroke:#181818;stroke-width:1;"/><polygon fill="#181818" points="715.77,220.0883,725.593,219.375,720.18,217.732,721.823,212.319,715.77,220.0883" style="stroke:#181818;stroke-width:1;"/><text fill="#000000" font-family="sans-serif" font-size="13" lengthAdjust="spacing" textLength="215.2109" x="776.93" y="199.0566">&#1059;&#1089;&#1087;&#1077;&#1096;&#1085;&#1072;&#1103; &#1086;&#1087;&#1083;&#1072;&#1090;&#1072; (&#1060;&#1058;-001.02.03)</text></g><!--link ????????????? to ????????--><g class="link" data-entity-1="............." data-entity-2="........" data-source-line="4" data-uid="lnk8" id="link_............._........"><path d="M926.68,155.2983 C950.38,161.6283 976.26,171.1883 997.12,185.4883 C1076.59,239.9883 1161.85,295.5983 1105.12,373.4883 C1060.71,434.4483 973.174,447.9106 917.184,450.4106" fill="none" id="&#1054;&#1078;&#1080;&#1076;&#1072;&#1077;&#1090;&#1054;&#1087;&#1083;&#1072;&#1090;&#1099;-to-&#1054;&#1090;&#1084;&#1077;&#1085;&#1077;&#1085;&#1086;" style="stroke:#181818;stroke-width:1;"/><polygon fill="#181818" points="911.19,450.6783,920.3595,454.2728,916.185,450.4552,920.0026,446.2808,911.19,450.6783" style="stroke:#181818;stroke-width:1;"/><text fill="#000000" font-family="sans-serif" font-size="13" lengthAdjust="spacing" textLength="322.6641" x="1121.63" y="302.0566">&#1054;&#1090;&#1084;&#1077;&#1085;&#1072; &#1073;&#1088;&#1086;&#1085;&#1080;&#1088;&#1086;&#1074;&#1072;&#1085;&#1080;&#1103; (&#1087;&#1086;&#1083;&#1100;&#1079;&#1086;&#1074;&#1072;&#1090;&#1077;&#1083;&#1077;&#1084;/&#1089;&#1080;&#1089;&#1090;&#1077;&#1084;&#1086;&#1081;)</text></g><!--link ???????????? to ???????--><g class="link" data-entity-1="............" data-entity-2="......." data-source-line="5" data-uid="lnk10" id="link_............_......."><path d="M608.04,249.0783 C501.17,254.0883 291.43,266.6183 266.12,288.4883 C256.28,296.9883 253.0845,304.9741 251.7445,317.1841" fill="none" id="&#1055;&#1086;&#1076;&#1090;&#1074;&#1077;&#1088;&#1078;&#1076;&#1077;&#1085;&#1086;-to-&#1040;&#1082;&#1090;&#1080;&#1074;&#1085;&#1086;" style="stroke:#181818;stroke-width:1;"/><polygon fill="#181818" points="251.09,323.1483,256.0479,314.6384,251.6355,318.1781,248.0957,313.7656,251.09,323.1483" style="stroke:#181818;stroke-width:1;"/><text fill="#000000" font-family="sans-serif" font-size="13" lengthAdjust="spacing" textLength="322.7529" x="267.12" y="302.0566">&#1053;&#1072;&#1089;&#1090;&#1091;&#1087;&#1083;&#1077;&#1085;&#1080;&#1077; &#1074;&#1088;&#1077;&#1084;&#1077;&#1085;&#1080; &#1073;&#1088;&#1086;&#1085;&#1080;&#1088;&#1086;&#1074;&#1072;&#1085;&#1080;&#1103; (&#1060;&#1058;-002.01)</text></g><!--link ???????????? to ????????--><g class="link" data-entity-1="............" data-entity-2="........" data-source-line="6" data-uid="lnk11" id="link_............_........"><path d="M732.5,253.0583 C778.8,259.3183 836.49,270.4883 852.12,288.4883 C885.44,326.8583 879.9766,385.4708 873.1166,420.3908" fill="none" id="&#1055;&#1086;&#1076;&#1090;&#1074;&#1077;&#1088;&#1078;&#1076;&#1077;&#1085;&#1086;-to-&#1054;&#1090;&#1084;&#1077;&#1085;&#1077;&#1085;&#1086;" style="stroke:#181818;stroke-width:1;"/><polygon fill="#181818" points="871.96,426.2783,877.6199,418.2181,872.9238,421.3721,869.7699,416.676,871.96,426.2783" style="stroke:#181818;stroke-width:1;"/><text fill="#000000" font-family="sans-serif" font-size="13" lengthAdjust="spacing" textLength="223.6279" x="878.54" y="353.5566">&#1054;&#1090;&#1084;&#1077;&#1085;&#1072; &#1073;&#1088;&#1086;&#1085;&#1080;&#1088;&#1086;&#1074;&#1072;&#1085;&#1080;&#1103; (&#1076;&#1086; &#1085;&#1072;&#1095;&#1072;&#1083;&#1072;)</text></g><!--link ???????????? to ????????--><g class="link" data-entity-1="............" data-entity-2="........" data-source-line="7" data-uid="lnk13" id="link_............_........"><path d="M614.86,270.9083 C608.61,275.8583 603.08,281.6783 599.12,288.4883 C593.14,298.7583 591.8742,305.8596 592.8242,317.0896" fill="none" id="&#1055;&#1086;&#1076;&#1090;&#1074;&#1077;&#1088;&#1078;&#1076;&#1077;&#1085;&#1086;-to-&#1048;&#1079;&#1084;&#1077;&#1085;&#1077;&#1085;&#1086;" style="stroke:#181818;stroke-width:1;"/><polygon fill="#181818" points="593.33,323.0683,596.5571,313.7631,592.9085,318.0861,588.5856,314.4375,593.33,323.0683" style="stroke:#181818;stroke-width:1;"/><text fill="#000000" font-family="sans-serif" font-size="13" lengthAdjust="spacing" textLength="251.5767" x="600.12" y="302.0566">&#1048;&#1079;&#1084;&#1077;&#1085;&#1077;&#1085;&#1080;&#1077; &#1073;&#1088;&#1086;&#1085;&#1080;&#1088;&#1086;&#1074;&#1072;&#1085;&#1080;&#1103; (&#1060;&#1058;-006.02)</text></g><!--link ??????? to ?????????--><g class="link" data-entity-1="......." data-entity-2="........." data-source-line="8" data-uid="lnk15" id="link_......._........."><path d="M211.9,352.9183 C163.65,358.0383 85.92,369.5183 68.12,391.4883 C60.44,400.9583 58.9786,408.4206 60.3686,420.0606" fill="none" id="&#1040;&#1082;&#1090;&#1080;&#1074;&#1085;&#1086;-to-&#1047;&#1072;&#1074;&#1077;&#1088;&#1096;&#1077;&#1085;&#1086;" style="stroke:#181818;stroke-width:1;"/><polygon fill="#181818" points="61.08,426.0183,63.9846,416.6075,60.4871,421.0536,56.0411,417.5561,61.08,426.0183" style="stroke:#181818;stroke-width:1;"/><text fill="#000000" font-family="sans-serif" font-size="13" lengthAdjust="spacing" textLength="310.4893" x="69.12" y="405.0566">&#1054;&#1082;&#1086;&#1085;&#1095;&#1072;&#1085;&#1080;&#1077; &#1074;&#1088;&#1077;&#1084;&#1077;&#1085;&#1080; &#1073;&#1088;&#1086;&#1085;&#1080;&#1088;&#1086;&#1074;&#1072;&#1085;&#1080;&#1103; (&#1060;&#1058;-002.02)</text></g><!--link ??????? to ????????--><g class="link" data-entity-1="......." data-entity-2="........" data-source-line="9" data-uid="lnk16" id="link_......._........"><path d="M290.52,358.7783 C316.76,365.8083 351.54,376.7683 380.12,391.4883 C391.42,397.3083 391.24,403.9683 403.12,408.4883 C478.74,437.2583 713.9222,446.565 814.9322,449.315" fill="none" id="&#1040;&#1082;&#1090;&#1080;&#1074;&#1085;&#1086;-to-&#1054;&#1090;&#1084;&#1077;&#1085;&#1077;&#1085;&#1086;" style="stroke:#181818;stroke-width:1;"/><polygon fill="#181818" points="820.93,449.4783,812.0422,445.2348,815.9319,449.3422,811.8245,453.2319,820.93,449.4783" style="stroke:#181818;stroke-width:1;"/><text fill="#000000" font-family="sans-serif" font-size="13" lengthAdjust="spacing" textLength="447.6367" x="404.12" y="405.0566">&#1054;&#1090;&#1084;&#1077;&#1085;&#1072; &#1073;&#1088;&#1086;&#1085;&#1080;&#1088;&#1086;&#1074;&#1072;&#1085;&#1080;&#1103; (&#1074; &#1087;&#1088;&#1086;&#1094;&#1077;&#1089;&#1089;&#1077; &#1080;&#1089;&#1087;&#1086;&#1083;&#1100;&#1079;&#1086;&#1074;&#1072;&#1085;&#1080;&#1103;, &#1077;&#1089;&#1083;&#1080; &#1087;&#1088;&#1080;&#1084;&#1077;&#1085;&#1080;&#1084;&#1086;)</text></g><!--SRC=[dLFBIiDG4DtdAuQkMZ4rLN3XmeM_8Iww4171BjgT24aAAbJmiT6D5TGFI4EYrrRJNvZv8y-T6oqjMai38ScvC-USEVUctMbszgd2Dn9omPziz9boOjyvhr2pJJkjrj7XyG6TU8HhTsMFV7-RkC-lACbGcakChp6FE95OUhH5V2iz7d0X8O4mbqYw4afagOaDSMfH_i0D6QMTGwTgZ-ZDi91YEKHffhs5rNe6yHZm1O14hWYLPJCdLEKNVlA3e54Frkl1HcqXiJv0P-v7P08bn8FVqe9o5KG5Z-IItnoEfXpK67KD9WroY7NkWjzB9t_DfJwkUOWbWyNInGCemI5TTPoxJPg9SvuzbmM2Q2mYltmC6QfrDyu18jf5rEuHsepQDAIZ_ZVR9lQvL9jEJpNkKA_YE2oJcNXeATNhqe7E4Lq-HlmiOmlAcVv3aRLczBHFdJ9Nlqgs26aRrsM-_TlpLlDElIy0]--></g></svg>