<svg xmlns="http://www.w3.org/2000/svg" xmlns:xlink="http://www.w3.org/1999/xlink" contentStyleType="text/css" data-diagram-type="STATE" height="286px" preserveAspectRatio="none" style="width:1250px;height:286px;background:#FFFFFF;" version="1.1" viewBox="0 0 1250 286" width="1250px" zoomAndPan="magnify"><defs/><g><path d="M19.5,7 L1224.8579,7 A12.5,12.5 0 0 1 1237.3579,19.5 L1237.3579,33.4883 L7,33.4883 L7,19.5 A12.5,12.5 0 0 1 19.5,7" fill="#F1F1F1"/><rect fill="none" height="273.4883" rx="12.5" ry="12.5" style="stroke:#181818;stroke-width:0.5;" width="1230.3579" x="7" y="7"/><line style="stroke:#181818;stroke-width:0.5;" x1="7" x2="1237.3579" y1="33.4883" y2="33.4883"/><text fill="#000000" font-family="sans-serif" font-size="14" lengthAdjust="spacing" textLength="204.6611" x="519.8484" y="25.5352">&#1059;&#1095;&#1077;&#1090;&#1085;&#1072;&#1103; &#1079;&#1072;&#1087;&#1080;&#1089;&#1100; &#1055;&#1086;&#1083;&#1100;&#1079;&#1086;&#1074;&#1072;&#1090;&#1077;&#1083;&#1103;</text><ellipse cx="654.17" cy="54.4883" fill="#222222" rx="10" ry="10" style="stroke:#222222;stroke-width:1;"/><g id="UserAccount........"><rect fill="#F1F1F1" height="50" rx="12.5" ry="12.5" style="stroke:#181818;stroke-width:0.5;" width="77.0664" x="615.63" y="117.4883"/><line style="stroke:#181818;stroke-width:0.5;" x1="615.63" x2="692.6964" y1="143.9766" y2="143.9766"/><text fill="#000000" font-family="sans-serif" font-size="14" lengthAdjust="spacing" textLength="57.0664" x="625.63" y="136.0234">&#1040;&#1082;&#1090;&#1080;&#1074;&#1085;&#1072;</text></g><g id="UserAccount.............."><rect fill="#F1F1F1" height="50" rx="12.5" ry="12.5" style="stroke:#181818;stroke-width:0.5;" width="126.1006" x="220.12" y="220.4883"/><line style="stroke:#181818;stroke-width:0.5;" x1="220.12" x2="346.2206" y1="246.9766" y2="246.9766"/><text fill="#000000" font-family="sans-serif" font-size="14" lengthAdjust="spacing" textLength="106.1006" x="230.12" y="239.0234">&#1047;&#1072;&#1073;&#1083;&#1086;&#1082;&#1080;&#1088;&#1086;&#1074;&#1072;&#1085;&#1072;</text></g><g id="UserAccount..............."><rect fill="#F1F1F1" height="50" rx="12.5" ry="12.5" style="stroke:#181818;stroke-width:0.5;" width="135.541" x="803.4" y="220.4883"/><line style="stroke:#181818;stroke-width:0.5;" x1="803.4" x2="938.941" y1="246.9766" y2="246.9766"/><text fill="#000000" font-family="sans-serif" font-size="14" lengthAdjust="spacing" textLength="115.541" x="813.4" y="239.0234">&#1055;&#1088;&#1080;&#1086;&#1089;&#1090;&#1072;&#1085;&#1086;&#1074;&#1083;&#1077;&#1085;&#1072;</text></g><!--link *start*UserAccount to ???????--><g class="link" data-entity-1=".start.UserAccount" data-entity-2="......." data-source-line="3" data-uid="lnk4" id="link_.start.UserAccount_......."><path d="M654.17,64.6883 C654.17,77.0883 654.17,93.5983 654.17,111.0483" fill="none" id="*start*UserAccount-to-&#1040;&#1082;&#1090;&#1080;&#1074;&#1085;&#1072;" style="stroke:#181818;stroke-width:1;"/><polygon fill="#181818" points="654.17,117.0483,658.17,108.0483,654.17,112.0483,650.17,108.0483,654.17,117.0483" style="stroke:#181818;stroke-width:1;"/><text fill="#000000" font-family="sans-serif" font-size="13" lengthAdjust="spacing" textLength="80.9136" x="655.17" y="96.0566">&#1056;&#1077;&#1075;&#1080;&#1089;&#1090;&#1088;&#1072;&#1094;&#1080;&#1103;</text></g><!--link ??????? to ?????????????--><g class="link" data-entity-1="......." data-entity-2="............." data-source-line="4" data-uid="lnk6" id="link_......._............."><path d="M615.28,143.0683 C484.07,142.0583 63.63,142.2483 23.17,185.4883 C18,191.0083 18.27,196.7383 23.17,202.4883 C47.92,231.5583 145.0248,240.3383 213.7248,243.0883" fill="none" id="&#1040;&#1082;&#1090;&#1080;&#1074;&#1085;&#1072;-to-&#1047;&#1072;&#1073;&#1083;&#1086;&#1082;&#1080;&#1088;&#1086;&#1074;&#1072;&#1085;&#1072;" style="stroke:#181818;stroke-width:1;"/><polygon fill="#181818" points="219.72,243.3283,210.8872,238.9715,214.724,243.1283,210.5672,246.9651,219.72,243.3283" style="stroke:#181818;stroke-width:1;"/><text fill="#000000" font-family="sans-serif" font-size="13" lengthAdjust="spacing" textLength="497.1357" x="24.17" y="199.0566">&#1040;&#1074;&#1090;&#1086;&#1084;&#1072;&#1090;&#1080;&#1095;&#1077;&#1089;&#1082;&#1072;&#1103; &#1073;&#1083;&#1086;&#1082;&#1080;&#1088;&#1086;&#1074;&#1082;&#1072; (&#1060;&#1058;-015) / &#1040;&#1076;&#1084;&#1080;&#1085;&#1080;&#1089;&#1090;&#1088;&#1072;&#1090;&#1086;&#1088; &#1073;&#1083;&#1086;&#1082;&#1080;&#1088;&#1091;&#1077;&#1090; (&#1060;&#1058;-008)</text></g><!--link ??????? to ??????????????--><g class="link" data-entity-1="......." data-entity-2=".............." data-source-line="5" data-uid="lnk8" id="link_......._.............."><path d="M693.12,160.1283 C708.72,167.2983 726.64,176.1583 742.17,185.4883 C753.06,192.0383 754.05,196.3183 765.17,202.4883 C777.02,209.0683 784.5837,212.8254 797.4137,218.1854" fill="none" id="&#1040;&#1082;&#1090;&#1080;&#1074;&#1085;&#1072;-to-&#1055;&#1088;&#1080;&#1086;&#1089;&#1090;&#1072;&#1085;&#1086;&#1074;&#1083;&#1077;&#1085;&#1072;" style="stroke:#181818;stroke-width:1;"/><polygon fill="#181818" points="802.95,220.4983,796.1875,213.3381,798.3364,218.5709,793.1036,220.7198,802.95,220.4983" style="stroke:#181818;stroke-width:1;"/><text fill="#000000" font-family="sans-serif" font-size="13" lengthAdjust="spacing" textLength="189.1475" x="766.17" y="199.0566">&#1064;&#1090;&#1088;&#1072;&#1092; &#1079;&#1072; &#1079;&#1072;&#1076;&#1077;&#1088;&#1078;&#1082;&#1091; (&#1060;&#1058;-018)</text></g><!--link ????????????? to ???????--><g class="link" data-entity-1="............." data-entity-2="......." data-source-line="6" data-uid="lnk9" id="link_............._......."><path d="M346.46,242.7983 C396.4,239.2983 466.64,229.4383 522.17,202.4883 C532.36,197.5383 531.46,191.3383 541.17,185.4883 C564.19,171.5983 586.8424,162.8556 609.4024,155.8156" fill="none" id="&#1047;&#1072;&#1073;&#1083;&#1086;&#1082;&#1080;&#1088;&#1086;&#1074;&#1072;&#1085;&#1072;-to-&#1040;&#1082;&#1090;&#1080;&#1074;&#1085;&#1072;" style="stroke:#181818;stroke-width:1;"/><polygon fill="#181818" points="615.13,154.0283,605.347,152.8909,610.357,155.5177,607.7302,160.5277,615.13,154.0283" style="stroke:#181818;stroke-width:1;"/><text fill="#000000" font-family="sans-serif" font-size="13" lengthAdjust="spacing" textLength="195.9521" x="542.17" y="199.0566">&#1040;&#1076;&#1084;&#1080;&#1085;&#1080;&#1089;&#1090;&#1088;&#1072;&#1090;&#1086;&#1088; &#1088;&#1072;&#1079;&#1073;&#1083;&#1086;&#1082;&#1080;&#1088;&#1091;&#1077;&#1090;</text></g><!--link ?????????????? to ???????--><g class="link" data-entity-1=".............." data-entity-2="......." data-source-line="7" data-uid="lnk10" id="link_.............._......."><path d="M939.24,221.2683 C957.04,211.5983 968.26,199.3783 956.17,185.4883 C922.49,146.8083 772.8,142.5979 699.08,142.8479" fill="none" id="&#1055;&#1088;&#1080;&#1086;&#1089;&#1090;&#1072;&#1085;&#1086;&#1074;&#1083;&#1077;&#1085;&#1072;-to-&#1040;&#1082;&#1090;&#1080;&#1074;&#1085;&#1072;" style="stroke:#181818;stroke-width:1;"/><polygon fill="#181818" points="693.08,142.8683,702.0935,146.8377,698.08,142.8513,702.0664,138.8378,693.08,142.8683" style="stroke:#181818;stroke-width:1;"/><text fill="#000000" font-family="sans-serif" font-size="13" lengthAdjust="spacing" textLength="265.1479" x="962.21" y="199.0566">&#1048;&#1089;&#1090;&#1077;&#1095;&#1077;&#1085;&#1080;&#1077; &#1089;&#1088;&#1086;&#1082;&#1072; &#1087;&#1088;&#1080;&#1086;&#1089;&#1090;&#1072;&#1085;&#1086;&#1074;&#1082;&#1080; (24 &#1095;&#1072;&#1089;&#1072;)</text></g><!--SRC=[VP71IiD068JlUOgVdXeXM4L1F0W-X2VnK4gl2YQUHDYcefT2UjDRHJruZBNHfT7q5MRVgBERHh4cvhJPp7mp_vymwaPzQU79t28pCRwGcaJmWHGBQ3Cm8y441N8pucM1AR_7oFYUjAGRob7OFp_izSukJYEvz8JFySQ91C61O8mvfPeMGcLVy43VcuF6Hf5pmtFYF6jQPxzZXLVap9nJfyhi2ZN6bFe2dwwETkK75BhowovUInlFU0mwMxk-R5hxZ5PDsayRuepwPJP3kvBAsjdp6xjEID3qa-KwsjISqwxQlgmYhjrYo-tEo5Pu9sluNQvAQ1wzVh7DuzWZu_uCLURyLxi-wTvfCxjlcuPCUA4SctCjQdWCbVRsZj2IyXUbldVbBG40]--></g></svg>