<svg xmlns="http://www.w3.org/2000/svg" xmlns:xlink="http://www.w3.org/1999/xlink" contentStyleType="text/css" data-diagram-type="DESCRIPTION" height="2300px" preserveAspectRatio="none" style="width:691px;height:2300px;background:#FFFFFF;" version="1.1" viewBox="0 0 691 2300" width="691px" zoomAndPan="magnify"><defs/><g><!--cluster ??????? ?????????? ???????????--><g class="cluster" data-entity="....... .......... ..........." data-source-line="12" data-uid="ent0005" id="cluster_....... .......... ..........."><rect fill="none" height="2287" rx="2.5" ry="2.5" style="stroke:#181818;stroke-width:1;" width="429.08" x="256.64" y="7"/><text fill="#000000" font-family="sans-serif" font-size="14" font-weight="bold" lengthAdjust="spacing" textLength="257.1064" x="342.6268" y="22.5352">&#1057;&#1080;&#1089;&#1090;&#1077;&#1084;&#1072; &#1059;&#1087;&#1088;&#1072;&#1074;&#1083;&#1077;&#1085;&#1080;&#1103; &#1050;&#1086;&#1074;&#1086;&#1088;&#1082;&#1080;&#1085;&#1075;&#1086;&#1084;</text></g><!--cluster ???????????????? ????????--><g class="cluster" data-entity="................ ........" data-source-line="15" data-uid="ent0006" id="cluster_................ ........"><path d="M283.14,50 L496.1771,50 A3.75,3.75 0 0 1 498.6771,52.5 L505.6771,72.4883 L659.22,72.4883 A2.5,2.5 0 0 1 661.72,74.9883 L661.72,843.5 A2.5,2.5 0 0 1 659.22,846 L283.14,846 A2.5,2.5 0 0 1 280.64,843.5 L280.64,52.5 A2.5,2.5 0 0 1 283.14,50" fill="none" style="stroke:#000000;stroke-width:1.5;"/><line style="stroke:#000000;stroke-width:1.5;" x1="280.64" x2="505.6771" y1="72.4883" y2="72.4883"/><text fill="#000000" font-family="sans-serif" font-size="14" font-weight="bold" lengthAdjust="spacing" textLength="212.0371" x="284.64" y="65.5352">&#1055;&#1086;&#1083;&#1100;&#1079;&#1086;&#1074;&#1072;&#1090;&#1077;&#1083;&#1100;&#1089;&#1082;&#1080;&#1077; &#1086;&#1087;&#1077;&#1088;&#1072;&#1094;&#1080;&#1080;</text></g><!--cluster ?????????? ????????--><g class="cluster" data-entity=".......... ........" data-source-line="28" data-uid="ent0016" id="cluster_.......... ........"><path d="M322.16,870 L487.325,870 A3.75,3.75 0 0 1 489.825,872.5 L496.825,892.4883 L620.2,892.4883 A2.5,2.5 0 0 1 622.7,894.9883 L622.7,1317.5 A2.5,2.5 0 0 1 620.2,1320 L322.16,1320 A2.5,2.5 0 0 1 319.66,1317.5 L319.66,872.5 A2.5,2.5 0 0 1 322.16,870" fill="none" style="stroke:#000000;stroke-width:1.5;"/><line style="stroke:#000000;stroke-width:1.5;" x1="319.66" x2="496.825" y1="892.4883" y2="892.4883"/><text fill="#000000" font-family="sans-serif" font-size="14" font-weight="bold" lengthAdjust="spacing" textLength="164.165" x="323.66" y="885.5352">&#1059;&#1087;&#1088;&#1072;&#1074;&#1083;&#1077;&#1085;&#1080;&#1077; &#1057;&#1080;&#1089;&#1090;&#1077;&#1084;&#1086;&#1081;</text></g><!--cluster ?????????? ? ??????????--><g class="cluster" data-entity=".......... . .........." data-source-line="36" data-uid="ent0022" id="cluster_.......... . .........."><path d="M299.88,1344 L491.548,1344 A3.75,3.75 0 0 1 494.048,1346.5 L501.048,1366.4883 L642.48,1366.4883 A2.5,2.5 0 0 1 644.98,1368.9883 L644.98,1751.5 A2.5,2.5 0 0 1 642.48,1754 L299.88,1754 A2.5,2.5 0 0 1 297.38,1751.5 L297.38,1346.5 A2.5,2.5 0 0 1 299.88,1344" fill="none" style="stroke:#000000;stroke-width:1.5;"/><line style="stroke:#000000;stroke-width:1.5;" x1="297.38" x2="501.048" y1="1366.4883" y2="1366.4883"/><text fill="#000000" font-family="sans-serif" font-size="14" font-weight="bold" lengthAdjust="spacing" textLength="190.668" x="301.38" y="1359.5352">&#1054;&#1090;&#1095;&#1077;&#1090;&#1085;&#1086;&#1089;&#1090;&#1100; &#1080; &#1084;&#1086;&#1085;&#1080;&#1090;&#1086;&#1088;&#1080;&#1085;&#1075;</text></g><!--cluster ???????????? ? ????????????--><g class="cluster" data-entity="............ . ............" data-source-line="43" data-uid="ent0027" id="cluster_............ . ............"><path d="M316.73,1778 L544.4644,1778 A3.75,3.75 0 0 1 546.9644,1780.5 L553.9644,1800.4883 L625.63,1800.4883 A2.5,2.5 0 0 1 628.13,1802.9883 L628.13,2148.5 A2.5,2.5 0 0 1 625.63,2151 L316.73,2151 A2.5,2.5 0 0 1 314.23,2148.5 L314.23,1780.5 A2.5,2.5 0 0 1 316.73,1778" fill="none" style="stroke:#000000;stroke-width:1.5;"/><line style="stroke:#000000;stroke-width:1.5;" x1="314.23" x2="553.9644" y1="1800.4883" y2="1800.4883"/><text fill="#000000" font-family="sans-serif" font-size="14" font-weight="bold" lengthAdjust="spacing" textLength="226.7344" x="318.23" y="1793.5352">&#1050;&#1086;&#1085;&#1092;&#1080;&#1075;&#1091;&#1088;&#1072;&#1094;&#1080;&#1103; &#1080; &#1073;&#1077;&#1079;&#1086;&#1087;&#1072;&#1089;&#1085;&#1086;&#1089;&#1090;&#1100;</text></g><!--entity UC29--><g class="entity" data-entity="UC29" data-source-line="51" data-uid="ent0032" id="entity_UC29"><ellipse cx="471.1824" cy="2189.0045" fill="#F1F1F1" rx="86.7724" ry="19.7545" style="stroke:#181818;stroke-width:0.5;"/><text fill="#000000" font-family="sans-serif" font-size="14" lengthAdjust="spacing" textLength="145.8584" x="398.2532" y="2193.7486">&#1054;&#1073;&#1088;&#1072;&#1073;&#1086;&#1090;&#1082;&#1072; &#1087;&#1083;&#1072;&#1090;&#1077;&#1078;&#1077;&#1081;</text></g><!--entity UC30--><g class="entity" data-entity="UC30" data-source-line="52" data-uid="ent0033" id="entity_UC30"><ellipse cx="471.1772" cy="2260.9974" fill="#F1F1F1" rx="73.0372" ry="17.0074" style="stroke:#181818;stroke-width:0.5;"/><text fill="#000000" font-family="sans-serif" font-size="14" lengthAdjust="spacing" textLength="113.2441" x="414.5551" y="2265.7416">&#1042;&#1086;&#1079;&#1074;&#1088;&#1072;&#1090; &#1089;&#1088;&#1077;&#1076;&#1089;&#1090;&#1074;</text></g><!--entity UC1--><g class="entity" data-entity="UC1" data-source-line="16" data-uid="ent0007" id="entity_UC1"><ellipse cx="471.1753" cy="271.0031" fill="#F1F1F1" rx="137.1153" ry="29.8231" style="stroke:#181818;stroke-width:0.5;"/><text fill="#000000" font-family="sans-serif" font-size="14" lengthAdjust="spacing" textLength="255.2471" x="343.5518" y="275.7472">&#1054;&#1090;&#1086;&#1073;&#1088;&#1072;&#1078;&#1077;&#1085;&#1080;&#1077; &#1076;&#1086;&#1089;&#1090;&#1091;&#1087;&#1085;&#1086;&#1089;&#1090;&#1080; &#1088;&#1077;&#1089;&#1091;&#1088;&#1089;&#1086;&#1074;</text></g><!--entity UC2--><g class="entity" data-entity="UC2" data-source-line="17" data-uid="ent0008" id="entity_UC2"><ellipse cx="471.1776" cy="107.0035" fill="#F1F1F1" rx="96.8176" ry="21.7635" style="stroke:#181818;stroke-width:0.5;"/><text fill="#000000" font-family="sans-serif" font-size="14" lengthAdjust="spacing" textLength="168.5537" x="386.9007" y="111.7477">&#1041;&#1088;&#1086;&#1085;&#1080;&#1088;&#1086;&#1074;&#1072;&#1085;&#1080;&#1077; &#1088;&#1077;&#1089;&#1091;&#1088;&#1089;&#1086;&#1074;</text></g><!--entity UC3--><g class="entity" data-entity="UC3" data-source-line="18" data-uid="ent0009" id="entity_UC3"><ellipse cx="471.1833" cy="185.0027" fill="#F1F1F1" rx="91.8133" ry="20.7627" style="stroke:#181818;stroke-width:0.5;"/><text fill="#000000" font-family="sans-serif" font-size="14" lengthAdjust="spacing" textLength="157.3359" x="392.5153" y="189.7468">&#1054;&#1090;&#1084;&#1077;&#1085;&#1072; &#1073;&#1088;&#1086;&#1085;&#1080;&#1088;&#1086;&#1074;&#1072;&#1085;&#1080;&#1103;</text></g><!--entity UC4--><g class="entity" data-entity="UC4" data-source-line="19" data-uid="ent0010" id="entity_UC4"><ellipse cx="471.1825" cy="359.0045" fill="#F1F1F1" rx="102.9225" ry="22.9845" style="stroke:#181818;stroke-width:0.5;"/><text fill="#000000" font-family="sans-serif" font-size="14" lengthAdjust="spacing" textLength="182.0479" x="380.1586" y="363.7486">&#1048;&#1079;&#1084;&#1077;&#1085;&#1077;&#1085;&#1080;&#1077; &#1073;&#1088;&#1086;&#1085;&#1080;&#1088;&#1086;&#1074;&#1072;&#1085;&#1080;&#1103;</text></g><!--entity UC5--><g class="entity" data-entity="UC5" data-source-line="20" data-uid="ent0011" id="entity_UC5"><ellipse cx="471.1809" cy="439.0022" fill="#F1F1F1" rx="98.6609" ry="22.1322" style="stroke:#181818;stroke-width:0.5;"/><text fill="#000000" font-family="sans-serif" font-size="14" lengthAdjust="spacing" textLength="172.6484" x="384.8567" y="443.7463">&#1055;&#1086;&#1083;&#1091;&#1095;&#1077;&#1085;&#1080;&#1077; &#1091;&#1074;&#1077;&#1076;&#1086;&#1084;&#1083;&#1077;&#1085;&#1080;&#1081;</text></g><!--entity UC6--><g class="entity" data-entity="UC6" data-source-line="21" data-uid="ent0012" id="entity_UC6"><ellipse cx="471.185" cy="523.999" fill="#F1F1F1" rx="128.795" ry="28.159" style="stroke:#181818;stroke-width:0.5;"/><text fill="#000000" font-family="sans-serif" font-size="14" lengthAdjust="spacing" textLength="237.6992" x="352.3354" y="528.7431">&#1040;&#1074;&#1090;&#1086;&#1088;&#1080;&#1079;&#1072;&#1094;&#1080;&#1103; &#1080; &#1076;&#1086;&#1089;&#1090;&#1091;&#1087; &#1082; &#1088;&#1077;&#1089;&#1091;&#1088;&#1089;&#1072;&#1084;</text></g><!--entity UC7--><g class="entity" data-entity="UC7" data-source-line="22" data-uid="ent0013" id="entity_UC7"><ellipse cx="471.1755" cy="612.9971" fill="#F1F1F1" rx="115.7855" ry="25.5571" style="stroke:#181818;stroke-width:0.5;"/><text fill="#000000" font-family="sans-serif" font-size="14" lengthAdjust="spacing" textLength="209.9658" x="366.1925" y="617.7412">&#1054;&#1089;&#1090;&#1072;&#1074;&#1083;&#1077;&#1085;&#1080;&#1077; &#1086;&#1090;&#1079;&#1099;&#1074;&#1086;&#1074; &#1080; &#1086;&#1094;&#1077;&#1085;&#1086;&#1082;</text></g><!--entity UC8--><g class="entity" data-entity="UC8" data-source-line="23" data-uid="ent0014" id="entity_UC8"><ellipse cx="471.1839" cy="696.9988" fill="#F1F1F1" rx="107.2939" ry="23.8588" style="stroke:#181818;stroke-width:0.5;"/><text fill="#000000" font-family="sans-serif" font-size="14" lengthAdjust="spacing" textLength="191.6045" x="375.3816" y="701.7429">&#1047;&#1072;&#1075;&#1088;&#1091;&#1079;&#1082;&#1072;/&#1059;&#1076;&#1072;&#1083;&#1077;&#1085;&#1080;&#1077; &#1092;&#1072;&#1081;&#1083;&#1086;&#1074;</text></g><!--entity UC9--><g class="entity" data-entity="UC9" data-source-line="24" data-uid="ent0015" id="entity_UC9"><ellipse cx="471.1795" cy="792.9979" fill="#F1F1F1" rx="174.5395" ry="37.3079" style="stroke:#181818;stroke-width:0.5;"/><text fill="#000000" font-family="sans-serif" font-size="14" lengthAdjust="spacing" textLength="333.0264" x="304.6663" y="797.742">&#1055;&#1088;&#1086;&#1089;&#1084;&#1086;&#1090;&#1088; &#1087;&#1077;&#1088;&#1089;&#1086;&#1085;&#1072;&#1083;&#1080;&#1079;&#1080;&#1088;&#1086;&#1074;&#1072;&#1085;&#1085;&#1099;&#1093; &#1087;&#1088;&#1077;&#1076;&#1083;&#1086;&#1078;&#1077;&#1085;&#1080;&#1081;</text></g><!--entity UC10--><g class="entity" data-entity="UC10" data-source-line="29" data-uid="ent0017" id="entity_UC10"><ellipse cx="471.1763" cy="930.9973" fill="#F1F1F1" rx="117.4863" ry="25.8973" style="stroke:#181818;stroke-width:0.5;"/><text fill="#000000" font-family="sans-serif" font-size="14" lengthAdjust="spacing" textLength="213.6162" x="364.3682" y="935.7414">&#1059;&#1087;&#1088;&#1072;&#1074;&#1083;&#1077;&#1085;&#1080;&#1077; &#1088;&#1077;&#1089;&#1091;&#1088;&#1089;&#1072;&#1084;&#1080; (CRUD)</text></g><!--entity UC14--><g class="entity" data-entity="UC14" data-source-line="30" data-uid="ent0018" id="entity_UC14"><ellipse cx="471.1793" cy="1021.0039" fill="#F1F1F1" rx="135.5193" ry="29.5039" style="stroke:#181818;stroke-width:0.5;"/><text fill="#000000" font-family="sans-serif" font-size="14" lengthAdjust="spacing" textLength="251.8906" x="345.234" y="1025.748">&#1059;&#1087;&#1088;&#1072;&#1074;&#1083;&#1077;&#1085;&#1080;&#1077; &#1087;&#1086;&#1083;&#1100;&#1079;&#1086;&#1074;&#1072;&#1090;&#1077;&#1083;&#1103;&#1084;&#1080; (CRUD)</text></g><!--entity UC22--><g class="entity" data-entity="UC22" data-source-line="31" data-uid="ent0019" id="entity_UC22"><ellipse cx="471.1831" cy="1113.0026" fill="#F1F1F1" rx="123.8631" ry="27.1726" style="stroke:#181818;stroke-width:0.5;"/><text fill="#000000" font-family="sans-serif" font-size="14" lengthAdjust="spacing" textLength="227.2334" x="357.5664" y="1117.7468">&#1059;&#1087;&#1088;&#1072;&#1074;&#1083;&#1077;&#1085;&#1080;&#1077; &#1090;&#1072;&#1088;&#1080;&#1092;&#1072;&#1084;&#1080; &#1080; &#1094;&#1077;&#1085;&#1072;&#1084;&#1080;</text></g><!--entity UC19--><g class="entity" data-entity="UC19" data-source-line="32" data-uid="ent0020" id="entity_UC19"><ellipse cx="471.176" cy="1202.9972" fill="#F1F1F1" rx="126.086" ry="27.6172" style="stroke:#181818;stroke-width:0.5;"/><text fill="#000000" font-family="sans-serif" font-size="14" lengthAdjust="spacing" textLength="231.957" x="355.1975" y="1207.7413">&#1052;&#1072;&#1089;&#1089;&#1086;&#1074;&#1072;&#1103; &#1088;&#1072;&#1089;&#1089;&#1099;&#1083;&#1082;&#1072; &#1091;&#1074;&#1077;&#1076;&#1086;&#1084;&#1083;&#1077;&#1085;&#1080;&#1081;</text></g><!--entity UC20--><g class="entity" data-entity="UC20" data-source-line="33" data-uid="ent0021" id="entity_UC20"><ellipse cx="471.1809" cy="1284.9982" fill="#F1F1F1" rx="84.1409" ry="19.2282" style="stroke:#181818;stroke-width:0.5;"/><text fill="#000000" font-family="sans-serif" font-size="14" lengthAdjust="spacing" textLength="139.7813" x="401.2903" y="1289.7423">&#1052;&#1086;&#1076;&#1077;&#1088;&#1072;&#1094;&#1080;&#1103; &#1086;&#1090;&#1079;&#1099;&#1074;&#1086;&#1074;</text></g><!--entity UC21--><g class="entity" data-entity="UC21" data-source-line="37" data-uid="ent0023" id="entity_UC21"><ellipse cx="471.1811" cy="1411.0002" fill="#F1F1F1" rx="147.4511" ry="31.8902" style="stroke:#181818;stroke-width:0.5;"/><text fill="#000000" font-family="sans-serif" font-size="14" lengthAdjust="spacing" textLength="276.8896" x="332.7363" y="1415.7444">&#1055;&#1088;&#1086;&#1089;&#1084;&#1086;&#1090;&#1088; &#1076;&#1077;&#1090;&#1072;&#1083;&#1100;&#1085;&#1086;&#1081; &#1080;&#1089;&#1090;&#1086;&#1088;&#1080;&#1080; &#1088;&#1077;&#1089;&#1091;&#1088;&#1089;&#1086;&#1074;</text></g><!--entity UC23--><g class="entity" data-entity="UC23" data-source-line="38" data-uid="ent0024" id="entity_UC23"><ellipse cx="471.1844" cy="1508.0049" fill="#F1F1F1" rx="138.5244" ry="30.1049" style="stroke:#181818;stroke-width:0.5;"/><text fill="#000000" font-family="sans-serif" font-size="14" lengthAdjust="spacing" textLength="258.207" x="342.0809" y="1512.749">&#1055;&#1088;&#1086;&#1089;&#1084;&#1086;&#1090;&#1088; &#1086;&#1090;&#1095;&#1077;&#1090;&#1086;&#1074; &#1087;&#1086; &#1079;&#1072;&#1075;&#1088;&#1091;&#1078;&#1077;&#1085;&#1085;&#1086;&#1089;&#1090;&#1080;</text></g><!--entity UC26--><g class="entity" data-entity="UC26" data-source-line="39" data-uid="ent0025" id="entity_UC26"><ellipse cx="471.1766" cy="1603.9953" fill="#F1F1F1" rx="143.2766" ry="31.0553" style="stroke:#181818;stroke-width:0.5;"/><text fill="#000000" font-family="sans-serif" font-size="14" lengthAdjust="spacing" textLength="268.167" x="337.0931" y="1608.7395">&#1055;&#1088;&#1086;&#1089;&#1084;&#1086;&#1090;&#1088; &#1078;&#1091;&#1088;&#1085;&#1072;&#1083;&#1072; &#1076;&#1077;&#1081;&#1089;&#1090;&#1074;&#1080;&#1081;/&#1089;&#1086;&#1073;&#1099;&#1090;&#1080;&#1081;</text></g><!--entity UC28--><g class="entity" data-entity="UC28" data-source-line="40" data-uid="ent0026" id="entity_UC28"><ellipse cx="471.1805" cy="1704.0001" fill="#F1F1F1" rx="157.8005" ry="33.9601" style="stroke:#181818;stroke-width:0.5;"/><text fill="#000000" font-family="sans-serif" font-size="14" lengthAdjust="spacing" textLength="298.4229" x="321.9691" y="1708.7442">&#1052;&#1086;&#1085;&#1080;&#1090;&#1086;&#1088;&#1080;&#1085;&#1075; &#1090;&#1077;&#1093;. &#1089;&#1086;&#1089;&#1090;&#1086;&#1103;&#1085;&#1080;&#1103; &#1086;&#1073;&#1086;&#1088;&#1091;&#1076;&#1086;&#1074;&#1072;&#1085;&#1080;&#1103;</text></g><!--entity UC18--><g class="entity" data-entity="UC18" data-source-line="44" data-uid="ent0028" id="entity_UC18"><ellipse cx="471.1793" cy="1835.9959" fill="#F1F1F1" rx="103.8793" ry="23.1759" style="stroke:#181818;stroke-width:0.5;"/><text fill="#000000" font-family="sans-serif" font-size="14" lengthAdjust="spacing" textLength="184.1465" x="379.106" y="1840.74">&#1053;&#1072;&#1089;&#1090;&#1088;&#1086;&#1081;&#1082;&#1072; &#1055;&#1054; &#1080; &#1083;&#1080;&#1094;&#1077;&#1085;&#1079;&#1080;&#1081;</text></g><!--entity UC24--><g class="entity" data-entity="UC24" data-source-line="45" data-uid="ent0029" id="entity_UC24"><ellipse cx="471.1823" cy="1920.9985" fill="#F1F1F1" rx="123.0923" ry="27.0185" style="stroke:#181818;stroke-width:0.5;"/><text fill="#000000" font-family="sans-serif" font-size="14" lengthAdjust="spacing" textLength="225.5928" x="358.386" y="1925.7426">&#1053;&#1072;&#1089;&#1090;&#1088;&#1086;&#1081;&#1082;&#1072; &#1087;&#1088;&#1072;&#1074;&#1080;&#1083; &#1086;&#1087;&#1090;&#1080;&#1084;&#1080;&#1079;&#1072;&#1094;&#1080;&#1080;</text></g><!--entity UC25--><g class="entity" data-entity="UC25" data-source-line="46" data-uid="ent0030" id="entity_UC25"><ellipse cx="471.1788" cy="2010.9958" fill="#F1F1F1" rx="125.6288" ry="27.5258" style="stroke:#181818;stroke-width:0.5;"/><text fill="#000000" font-family="sans-serif" font-size="14" lengthAdjust="spacing" textLength="230.9863" x="355.6856" y="2015.7399">&#1053;&#1072;&#1089;&#1090;&#1088;&#1086;&#1081;&#1082;&#1072; &#1096;&#1090;&#1088;&#1072;&#1092;&#1086;&#1074; &#1079;&#1072; &#1079;&#1072;&#1076;&#1077;&#1088;&#1078;&#1082;&#1080;</text></g><!--entity UC27--><g class="entity" data-entity="UC27" data-source-line="47" data-uid="ent0031" id="entity_UC27"><ellipse cx="471.1791" cy="2103.9998" fill="#F1F1F1" rx="140.9491" ry="30.5898" style="stroke:#181818;stroke-width:0.5;"/><text fill="#000000" font-family="sans-serif" font-size="14" lengthAdjust="spacing" textLength="263.293" x="339.5326" y="2108.744">&#1059;&#1087;&#1088;&#1072;&#1074;&#1083;&#1077;&#1085;&#1080;&#1077; &#1073;&#1083;&#1086;&#1082;&#1080;&#1088;&#1086;&#1074;&#1082;&#1072;&#1084;&#1080; &#1072;&#1082;&#1082;&#1072;&#1091;&#1085;&#1090;&#1086;&#1074;</text></g><!--entity User--><g class="entity" data-entity="User" data-source-line="5" data-uid="ent0002" id="entity_User"><ellipse cx="74.8229" cy="409.26" fill="#F1F1F1" rx="8" ry="8" style="stroke:#181818;stroke-width:0.5;"/><path d="M74.8229,417.26 L74.8229,444.26 M61.8229,425.26 L87.8229,425.26 M74.8229,444.26 L61.8229,459.26 M74.8229,444.26 L87.8229,459.26" fill="none" style="stroke:#181818;stroke-width:0.5;"/><text fill="#000000" font-family="sans-serif" font-size="14" lengthAdjust="spacing" textLength="94.4658" x="27.59" y="474.2952">&#1055;&#1086;&#1083;&#1100;&#1079;&#1086;&#1074;&#1072;&#1090;&#1077;&#1083;&#1100;</text></g><!--entity Admin--><g class="entity" data-entity="Admin" data-source-line="6" data-uid="ent0003" id="entity_Admin"><ellipse cx="74.8215" cy="1478.26" fill="#F1F1F1" rx="8" ry="8" style="stroke:#181818;stroke-width:0.5;"/><path d="M74.8215,1486.26 L74.8215,1513.26 M61.8215,1494.26 L87.8215,1494.26 M74.8215,1513.26 L61.8215,1528.26 M74.8215,1513.26 L87.8215,1528.26" fill="none" style="stroke:#181818;stroke-width:0.5;"/><text fill="#000000" font-family="sans-serif" font-size="14" lengthAdjust="spacing" textLength="110.5029" x="19.57" y="1543.2952">&#1040;&#1076;&#1084;&#1080;&#1085;&#1080;&#1089;&#1090;&#1088;&#1072;&#1090;&#1086;&#1088;</text></g><!--entity PaymentSystem--><g class="entity" data-entity="PaymentSystem" data-source-line="7" data-uid="ent0004" id="entity_PaymentSystem"><ellipse cx="74.8208" cy="2190.01" fill="#F1F1F1" rx="8" ry="8" style="stroke:#181818;stroke-width:0.5;"/><path d="M74.8208,2198.01 L74.8208,2225.01 M61.8208,2206.01 L87.8208,2206.01 M74.8208,2225.01 L61.8208,2240.01 M74.8208,2225.01 L87.8208,2240.01" fill="none" style="stroke:#181818;stroke-width:0.5;"/><text fill="#000000" font-family="sans-serif" font-size="14" lengthAdjust="spacing" textLength="59.8281" x="6" y="2255.0452">&#1042;&#1085;&#1077;&#1096;&#1085;&#1103;&#1103;</text><text fill="#000000" font-family="sans-serif" font-size="14" lengthAdjust="spacing" textLength="137.6416" x="6" y="2271.5334">&#1055;&#1083;&#1072;&#1090;&#1077;&#1078;&#1085;&#1072;&#1103; &#1057;&#1080;&#1089;&#1090;&#1077;&#1084;&#1072;</text></g><!--link User to UC1--><g class="link" data-entity-1="User" data-entity-2="UC1" data-source-line="58" data-uid="lnk34" id="link_User_UC1"><path d="M120.87,400.26 C154.12,373.61 201.58,339.46 248.64,319 C281.84,304.56 319.79,294.3 354.79,287.08" fill="none" id="User-UC1" style="stroke:#181818;stroke-width:1;"/></g><!--link User to UC2--><g class="link" data-entity-1="User" data-entity-2="UC2" data-source-line="59" data-uid="lnk35" id="link_User_UC2"><path d="M85.31,400.5 C103.89,334.57 151.94,201.87 248.64,147 C286.8,125.35 334.09,114.99 375.16,110.19" fill="none" id="User-UC2" style="stroke:#181818;stroke-width:1;"/></g><!--link User to UC3--><g class="link" data-entity-1="User" data-entity-2="UC3" data-source-line="60" data-uid="lnk36" id="link_User_UC3"><path d="M95.26,400.3 C122.38,350.7 176.45,266.09 248.64,224 C287.86,201.13 337.14,190.99 379.26,186.73" fill="none" id="User-UC3" style="stroke:#181818;stroke-width:1;"/></g><!--link User to UC4--><g class="link" data-entity-1="User" data-entity-2="UC4" data-source-line="61" data-uid="lnk37" id="link_User_UC4"><path d="M122.42,425.85 C138.57,421.49 156.84,416.79 173.64,413 C244.97,396.89 326.8,382.27 386.4,372.32" fill="none" id="User-UC4" style="stroke:#181818;stroke-width:1;"/></g><!--link User to UC5--><g class="link" data-entity-1="User" data-entity-2="UC5" data-source-line="62" data-uid="lnk38" id="link_User_UC5"><path d="M122.22,439 C183.3,439 292.27,439 372.03,439" fill="none" id="User-UC5" style="stroke:#181818;stroke-width:1;"/></g><!--link User to UC6--><g class="link" data-entity-1="User" data-entity-2="UC6" data-source-line="63" data-uid="lnk39" id="link_User_UC6"><path d="M122.32,450.12 C157.07,458.34 205.76,469.68 248.64,479 C289.68,487.92 335.11,497.24 374.1,505.07" fill="none" id="User-UC6" style="stroke:#181818;stroke-width:1;"/></g><!--link User to UC7--><g class="link" data-entity-1="User" data-entity-2="UC7" data-source-line="64" data-uid="lnk40" id="link_User_UC7"><path d="M115.31,477.44 C148.29,507.31 197.94,547.35 248.64,570 C284.86,586.18 327.08,596.29 364.9,602.6" fill="none" id="User-UC7" style="stroke:#181818;stroke-width:1;"/></g><!--link User to UC8--><g class="link" data-entity-1="User" data-entity-2="UC8" data-source-line="65" data-uid="lnk41" id="link_User_UC8"><path d="M94.45,477.65 C121.01,528.09 174.85,614.78 248.64,656 C284.15,675.84 327.38,686.33 366.18,691.79" fill="none" id="User-UC8" style="stroke:#181818;stroke-width:1;"/></g><!--link User to UC9--><g class="link" data-entity-1="User" data-entity-2="UC9" data-source-line="66" data-uid="lnk42" id="link_User_UC9"><path d="M85.05,477.55 C103.34,544.34 151.12,679.99 248.64,738 C272.99,752.49 301.02,763.17 328.78,771.05" fill="none" id="User-UC9" style="stroke:#181818;stroke-width:1;"/></g><!--link Admin to UC10--><g class="link" data-entity-1="Admin" data-entity-2="UC10" data-source-line="69" data-uid="lnk43" id="link_Admin_UC10"><path d="M79.23,1469.34 C87.2,1391.66 111.36,1212.4 173.64,1076 C197.01,1024.81 201.09,1004.09 248.64,974 C280.51,953.83 319.73,942.75 356.27,936.78" fill="none" id="Admin-UC10" style="stroke:#181818;stroke-width:1;"/></g><!--link Admin to UC14--><g class="link" data-entity-1="Admin" data-entity-2="UC14" data-source-line="70" data-uid="lnk44" id="link_Admin_UC14"><path d="M78.01,1469.53 C83.69,1397.53 103.78,1239.81 173.64,1130 C210.37,1072.27 281.72,1044.92 345.23,1032.05" fill="none" id="Admin-UC14" style="stroke:#181818;stroke-width:1;"/></g><!--link Admin to UC22--><g class="link" data-entity-1="Admin" data-entity-2="UC22" data-source-line="71" data-uid="lnk45" id="link_Admin_UC22"><path d="M75.32,1469.46 C76.62,1399.99 89.86,1253.68 173.64,1175 C219.84,1131.61 288.25,1115.34 347.72,1110.26" fill="none" id="Admin-UC22" style="stroke:#181818;stroke-width:1;"/></g><!--link Admin to UC19--><g class="link" data-entity-1="Admin" data-entity-2="UC19" data-source-line="72" data-uid="lnk46" id="link_Admin_UC19"><path d="M81.74,1469.45 C91.67,1417.69 116.52,1326.11 173.64,1273 C219.55,1230.32 286.49,1212.15 345.16,1204.95" fill="none" id="Admin-UC19" style="stroke:#181818;stroke-width:1;"/></g><!--link Admin to UC20--><g class="link" data-entity-1="Admin" data-entity-2="UC20" data-source-line="73" data-uid="lnk47" id="link_Admin_UC20"><path d="M113.59,1469.3 C146.71,1437.18 197.44,1392.2 248.64,1363 C300.89,1333.2 366.47,1311.85 412.68,1299.1" fill="none" id="Admin-UC20" style="stroke:#181818;stroke-width:1;"/></g><!--link Admin to UC21--><g class="link" data-entity-1="Admin" data-entity-2="UC21" data-source-line="74" data-uid="lnk48" id="link_Admin_UC21"><path d="M130.5,1492.01 C164.4,1482.3 208.91,1469.9 248.64,1460 C286.1,1450.66 327.34,1441.29 363.99,1433.29" fill="none" id="Admin-UC21" style="stroke:#181818;stroke-width:1;"/></g><!--link Admin to UC23--><g class="link" data-entity-1="Admin" data-entity-2="UC23" data-source-line="75" data-uid="lnk49" id="link_Admin_UC23"><path d="M130.24,1508 C182.22,1508 262.73,1508 332.35,1508" fill="none" id="Admin-UC23" style="stroke:#181818;stroke-width:1;"/></g><!--link Admin to UC26--><g class="link" data-entity-1="Admin" data-entity-2="UC26" data-source-line="76" data-uid="lnk50" id="link_Admin_UC26"><path d="M130.48,1524.05 C164.37,1533.78 208.89,1546.18 248.64,1556 C286.66,1565.39 328.59,1574.73 365.65,1582.64" fill="none" id="Admin-UC26" style="stroke:#181818;stroke-width:1;"/></g><!--link Admin to UC28--><g class="link" data-entity-1="Admin" data-entity-2="UC28" data-source-line="77" data-uid="lnk51" id="link_Admin_UC28"><path d="M111.19,1546.55 C143.75,1579.71 195.01,1626.28 248.64,1653 C276.9,1667.08 309.14,1677.34 340.1,1684.79" fill="none" id="Admin-UC28" style="stroke:#181818;stroke-width:1;"/></g><!--link Admin to UC18--><g class="link" data-entity-1="Admin" data-entity-2="UC18" data-source-line="78" data-uid="lnk52" id="link_Admin_UC18"><path d="M93.18,1546.72 C119.32,1600.78 173.83,1698.47 248.64,1754 C292.28,1786.39 350.09,1807.21 395.72,1819.77" fill="none" id="Admin-UC18" style="stroke:#181818;stroke-width:1;"/></g><!--link Admin to UC24--><g class="link" data-entity-1="Admin" data-entity-2="UC24" data-source-line="79" data-uid="lnk53" id="link_Admin_UC24"><path d="M81.21,1546.45 C94.29,1623.74 135.4,1797.31 248.64,1877 C278.14,1897.76 315.05,1909.28 350.24,1915.53" fill="none" id="Admin-UC24" style="stroke:#181818;stroke-width:1;"/></g><!--link Admin to UC25--><g class="link" data-entity-1="Admin" data-entity-2="UC25" data-source-line="80" data-uid="lnk54" id="link_Admin_UC25"><path d="M80.18,1546.66 C89.29,1616.5 114.6,1766.87 173.64,1879 C197.43,1924.17 204.59,1940.2 248.64,1966 C279.8,1984.25 317.17,1995.19 352.27,2001.73" fill="none" id="Admin-UC25" style="stroke:#181818;stroke-width:1;"/></g><!--link Admin to UC27--><g class="link" data-entity-1="Admin" data-entity-2="UC27" data-source-line="81" data-uid="lnk55" id="link_Admin_UC27"><path d="M77.67,1546.73 C82.91,1628.59 102.48,1823.53 173.64,1968 C196.35,2014.1 204.54,2029.62 248.64,2056 C276.92,2072.92 310.41,2083.91 342.67,2091.03" fill="none" id="Admin-UC27" style="stroke:#181818;stroke-width:1;"/></g><!--link UC2 to UC29--><g class="link" data-entity-1="UC2" data-entity-2="UC29" data-source-line="84" data-uid="lnk56" id="link_UC2_UC29"><path d="M381.45,98.5 C334.7,99.38 280.74,109.76 248.64,147 C172.18,235.7 215.74,1083.41 217.65,1200.5 C221.09,1411.81 109.75,1991.72 248.64,2151 C283.74,2191.25 338.5117,2199.5615 387.6917,2198.4015" fill="none" id="UC2-to-UC29" style="stroke:#181818;stroke-width:1;stroke-dasharray:7,7;"/><polygon fill="#181818" points="393.69,2198.26,384.5982,2194.4733,388.6914,2198.3779,384.7868,2202.4711,393.69,2198.26" style="stroke:#181818;stroke-width:1;"/><text fill="#000000" font-family="sans-serif" font-size="13" lengthAdjust="spacing" textLength="65.9839" x="174.64" y="1197.0684">&#171;includes&#187;</text></g><!--link UC3 to UC30--><g class="link" data-entity-1="UC3" data-entity-2="UC30" data-source-line="85" data-uid="lnk57" id="link_UC3_UC30"><path d="M387.6,176.02 C339.53,175.88 282.2,185.22 248.64,224 C170.49,314.32 215.65,1179.08 217.65,1298.5 C221.09,1504.7 112.02,2071.52 248.64,2226 C287.83,2270.31 352.4083,2274.9486 403.5983,2270.9386" fill="none" id="UC3-to-UC30" style="stroke:#181818;stroke-width:1;stroke-dasharray:7,7;"/><polygon fill="#181818" points="409.58,2270.47,400.2951,2267.1851,404.5953,2270.8605,400.9199,2275.1607,409.58,2270.47" style="stroke:#181818;stroke-width:1;"/><text fill="#000000" font-family="sans-serif" font-size="13" lengthAdjust="spacing" textLength="65.9839" x="174.64" y="1295.0684">&#171;includes&#187;</text></g><!--link PaymentSystem to UC29--><g class="link" data-entity-1="PaymentSystem" data-entity-2="UC29" data-source-line="86" data-uid="lnk58" id="link_PaymentSystem_UC29"><path d="M144.06,2221.25 C212.73,2214.46 318.56,2203.99 390.91,2196.84" fill="none" id="PaymentSystem-UC29" style="stroke:#181818;stroke-width:1;"/></g><!--link PaymentSystem to UC30--><g class="link" data-entity-1="PaymentSystem" data-entity-2="UC30" data-source-line="87" data-uid="lnk59" id="link_PaymentSystem_UC30"><path d="M144.06,2233.71 C216.26,2239.75 329.53,2249.23 401.78,2255.28" fill="none" id="PaymentSystem-UC30" style="stroke:#181818;stroke-width:1;"/></g><!--SRC=[ZLPBRXiv4DttAGXlChDmB4koBGM1WS0vm606tir6i3k905i6B6KH309OaZCJm07aSHOp2F91a0kqPFq_xIkGDygh8hj5jYb3yiAi9lbOLUzLaIVXYuPed8dpwijN3N5SFG-F6jMpMX0y4l9QJbLBnkf2NGMLeyRPkTYGtsGiP-g37E5_JqQO7v2z8IfrSLWFpzE5rx8lvt8i5tAicggbBdWnm7Zfi-FJQYrTUuDL0_LUBbH7TVwiuP2PWHvY9b8T8Rzh67oQouWXVgkyEGrhZJ_Ur1lXQK0_yhrIUtaI0j9PB-GFUKSUmEKPFf5FmFp4CS0bEML7Rs7FDyHVGI3mGm8-8lIslCDV93R5gjXLa_TFXBh4wWMIzZVCc3oNCuPwSNPo73wGFOCm4FXyXqnGhWXZJCu8ytjT3uygTOhjAoLITZcWeGw7zlOH2cMQF5xeiHmBh1fWs4OeJJfLCtMmxS7z5sjZJiw5ziyWhu38ht1jpYuXwLqVdkgOxGNFzl-H6RqzZUfXaA87H2UvhVv9GP2I7em-yPi8G4uCn8u7ubhsj5YnRgJ98C6CdIGBENLJ4v5w67FNcneYn98WyurF8tL5CfGzFY36OJGTowa1s_E0_GUWMrRd2DA9jY3mFibj6V8bp0a-BFag-N95MONhS_94NGWjFwQPvSlnswbVg2lrJd0rKK89VvX9Q9dFURkgYloDOGnyO7jgmAsWUuLCE-nYZyaFNzNuTcRf0m6_7Fn- -FpNf4foQmB1PLzbTpoGnNLzWrX8WCmamL0nQssmdLIXhmm_OsjJ5oktJyucFY31CzBBmnMnNVP2nbYUyaBbu8WtSITdiv_IXhv0zOWDfZEf3wpskQdjfDZGXFtitHDgdz4YJZfLoqGO4MYWbOqllxqEUfpwotK9TWKr0bDpMl5fZqsG2-iW3yaZKrmHXo4d3DCZ1hROrowAh6KHajzTGKWcTQIPWNhtM12AIKOdkUq0otTvcrdFDj9yoSiRNP4BA72CoDisz-2k2zT7NAtGrf9NFtzVM80jxYGJbY3wz5V6GPCnkXxP8YojXv8KpbZEk7LmukRBlhsafxWMe7flUjAbfdv4Xn3rMln3kgaJn9rrkqEN6-KqxQJJfAGZ367Gkq5hBO7UopHHF950G8lRxaB3RX7ft6XkqsuPwnQDCmyFWipzOruCNQvRdJlhdJLOggsSsNa3s15kHExKq9Rk_LgqoMMU2m8uIw_6xrZP8IfNFfZe5d3UPm6z7CNc9hzBbkEyDIvOuw8rth76kzPupngNh74vw-FAT-fzB_dHQjpCELRHjj2HxRcoC-ViGo-ohO9ZxJfMoS5qhBnx-evZxMNYLKsHULvJwqJzEZTeW9tYyJwBGJmHJvzMQqSdhu_3-lu-fWfwgf3BJZbFSkD0sVULv184Fm40]--></g></svg>